<?xml version="1.0" standalone="no"?>
<!DOCTYPE svg PUBLIC "-//W3C//DTD SVG 1.1//EN" "http://www.w3.org/Graphics/SVG/1.1/DTD/svg11.dtd">
<svg width="658" height="534" version="1.1" xmlns="http://www.w3.org/2000/svg">
<rect x="209" y="25" width="136" height="23" style="fill:rgb(255,255,255);stroke:rgb(0,0,0);stroke-width:1"/>
<text x="277" y="36.5" style="font-family:Arimo;font-size:8pt;fill:rgb(0,0,0);font-weight:bold;text-anchor:middle;dominant-baseline:central">FechaIndiceElectronico</text>
<line x1="211" y1="27" x2="219" y2="27" style="stroke:rgb(0,0,0);stroke-width:1"/>
<line x1="211" y1="29" x2="217" y2="29" style="stroke:rgb(0,0,0);stroke-width:1"/>
<line x1="211" y1="31" x2="217" y2="31" style="stroke:rgb(0,0,0);stroke-width:1"/>
<line x1="211" y1="33" x2="217" y2="33" style="stroke:rgb(0,0,0);stroke-width:1"/>

<rect x="475" y="78" width="136" height="23" style="fill:rgb(255,255,255);stroke:rgb(0,0,0);stroke-width:1"/>
<text x="543" y="89.5" style="font-family:Arimo;font-size:8pt;fill:rgb(0,0,0);font-weight:bold;text-anchor:middle;dominant-baseline:central">IdentificadorDocumento</text>
<line x1="477" y1="80" x2="485" y2="80" style="stroke:rgb(0,0,0);stroke-width:1"/>
<line x1="477" y1="82" x2="483" y2="82" style="stroke:rgb(0,0,0);stroke-width:1"/>
<line x1="477" y1="84" x2="483" y2="84" style="stroke:rgb(0,0,0);stroke-width:1"/>
<line x1="477" y1="86" x2="483" y2="86" style="stroke:rgb(0,0,0);stroke-width:1"/>

<rect x="475" y="131" width="77" height="23" style="fill:rgb(255,255,255);stroke:rgb(0,0,0);stroke-width:1"/>
<text x="513.5" y="142.5" style="font-family:Arimo;font-size:8pt;fill:rgb(0,0,0);font-weight:bold;text-anchor:middle;dominant-baseline:central">ValorHuella</text>
<line x1="477" y1="133" x2="485" y2="133" style="stroke:rgb(0,0,0);stroke-width:1"/>
<line x1="477" y1="135" x2="483" y2="135" style="stroke:rgb(0,0,0);stroke-width:1"/>
<line x1="477" y1="137" x2="483" y2="137" style="stroke:rgb(0,0,0);stroke-width:1"/>
<line x1="477" y1="139" x2="483" y2="139" style="stroke:rgb(0,0,0);stroke-width:1"/>

<rect x="475" y="184" width="105" height="23" style="fill:rgb(255,255,255);stroke:rgb(0,0,0);stroke-width:1"/>
<text x="527.5" y="195.5" style="font-family:Arimo;font-size:8pt;fill:rgb(0,0,0);font-weight:bold;text-anchor:middle;dominant-baseline:central">FuncionResumen</text>
<line x1="477" y1="186" x2="485" y2="186" style="stroke:rgb(0,0,0);stroke-width:1"/>
<line x1="477" y1="188" x2="483" y2="188" style="stroke:rgb(0,0,0);stroke-width:1"/>
<line x1="477" y1="190" x2="483" y2="190" style="stroke:rgb(0,0,0);stroke-width:1"/>
<line x1="477" y1="192" x2="483" y2="192" style="stroke:rgb(0,0,0);stroke-width:1"/>

<rect x="475" y="237" width="173" height="23" style="fill:rgb(255,255,255);stroke:rgb(0,0,0);stroke-width:1;stroke-dasharray:4,1"/>
<text x="561.5" y="248.5" style="font-family:Arimo;font-size:8pt;fill:rgb(0,0,0);font-weight:bold;text-anchor:middle;dominant-baseline:central">FechaIncorporacionExpediente</text>
<line x1="477" y1="239" x2="485" y2="239" style="stroke:rgb(0,0,0);stroke-width:1"/>
<line x1="477" y1="241" x2="483" y2="241" style="stroke:rgb(0,0,0);stroke-width:1"/>
<line x1="477" y1="243" x2="483" y2="243" style="stroke:rgb(0,0,0);stroke-width:1"/>
<line x1="477" y1="245" x2="483" y2="245" style="stroke:rgb(0,0,0);stroke-width:1"/>

<rect x="475" y="290" width="160" height="23" style="fill:rgb(255,255,255);stroke:rgb(0,0,0);stroke-width:1;stroke-dasharray:4,1"/>
<text x="555" y="301.5" style="font-family:Arimo;font-size:8pt;fill:rgb(0,0,0);font-weight:bold;text-anchor:middle;dominant-baseline:central">OrdenDocumentoExpediente</text>
<line x1="477" y1="292" x2="485" y2="292" style="stroke:rgb(0,0,0);stroke-width:1"/>
<line x1="477" y1="294" x2="483" y2="294" style="stroke:rgb(0,0,0);stroke-width:1"/>
<line x1="477" y1="296" x2="483" y2="296" style="stroke:rgb(0,0,0);stroke-width:1"/>
<line x1="477" y1="298" x2="483" y2="298" style="stroke:rgb(0,0,0);stroke-width:1"/>

<line x1="465" y1="89" x2="475" y2="89" style="stroke:rgb(0,0,0);stroke-width:1;stroke-linecap:round"/>
<line x1="465" y1="142" x2="475" y2="142" style="stroke:rgb(0,0,0);stroke-width:1;stroke-linecap:round"/>
<line x1="465" y1="195" x2="475" y2="195" style="stroke:rgb(0,0,0);stroke-width:1;stroke-linecap:round"/>
<line x1="465" y1="248" x2="475" y2="248" style="stroke:rgb(0,0,0);stroke-width:1;stroke-linecap:round"/>
<line x1="465" y1="301" x2="475" y2="301" style="stroke:rgb(0,0,0);stroke-width:1;stroke-linecap:round"/>
<line x1="465" y1="89" x2="465" y2="301" style="stroke:rgb(0,0,0);stroke-width:1;stroke-linecap:round"/>
<line x1="455" y1="195" x2="465" y2="195" style="stroke:rgb(0,0,0);stroke-width:1;stroke-linecap:round"/>
<path d="M421 185 L444 185 L450 191 L450 199 L444 205 L421 205 L415 199 L415 191 Z" style="fill:rgb(255,255,255);stroke:rgb(0,0,0);stroke-width:1"/>
<line x1="418" y1="195" x2="447" y2="195" style="stroke:rgb(0,0,0);stroke-width:1"/>
<ellipse cx="427" cy="195" rx="2" ry="2" style="rgb(0,0,0)"/>
<ellipse cx="432" cy="195" rx="2" ry="2" style="rgb(0,0,0)"/>
<ellipse cx="437" cy="195" rx="2" ry="2" style="rgb(0,0,0)"/>
<rect x="445" y="190" width="10" height="10" style="fill:rgb(255,255,255);stroke:rgb(0,0,0);stroke-width:1"/>
<line x1="447" y1="195" x2="453" y2="195" style="stroke:rgb(0,0,0);stroke-width:1"/>

<line x1="395" y1="195" x2="415" y2="195" style="stroke:rgb(0,0,0);stroke-width:1;stroke-linecap:round"/>
<rect x="269" y="184" width="121" height="23" style="fill:rgb(255,255,255);stroke:rgb(0,0,0);stroke-width:1"/>
<text x="329.5" y="195.5" style="font-family:Arimo;font-size:8pt;fill:rgb(0,0,0);font-weight:bold;text-anchor:middle;dominant-baseline:central">DocumentoIndizado</text>
<rect x="385" y="190" width="10" height="10" style="fill:rgb(255,255,255);stroke:rgb(0,0,0);stroke-width:1"/>
<line x1="387" y1="195" x2="393" y2="195" style="stroke:rgb(0,0,0);stroke-width:1"/>

<rect x="475" y="343" width="136" height="23" style="fill:rgb(255,255,255);stroke:rgb(0,0,0);stroke-width:1"/>
<text x="543" y="354.5" style="font-family:Arimo;font-size:8pt;fill:rgb(0,0,0);font-weight:bold;text-anchor:middle;dominant-baseline:central">FechaIndiceElectronico</text>
<line x1="477" y1="345" x2="485" y2="345" style="stroke:rgb(0,0,0);stroke-width:1"/>
<line x1="477" y1="347" x2="483" y2="347" style="stroke:rgb(0,0,0);stroke-width:1"/>
<line x1="477" y1="349" x2="483" y2="349" style="stroke:rgb(0,0,0);stroke-width:1"/>
<line x1="477" y1="351" x2="483" y2="351" style="stroke:rgb(0,0,0);stroke-width:1"/>

<path d="M484 399 L507 399 L513 405 L513 413 L507 419 L484 419 L478 413 L478 405 Z" style="fill:rgb(255,255,255);stroke:rgb(0,0,0);stroke-width:1"/>
<path d="M481 396 L504 396 L510 402 L510 410 L504 416 L481 416 L475 410 L475 402 Z" style="fill:rgb(255,255,255);stroke:rgb(0,0,0);stroke-width:1"/>
<line x1="480" y1="406" x2="484" y2="406" style="stroke:rgb(0,0,0);stroke-width:1"/>
<line x1="484" y1="406" x2="488" y2="402" style="stroke:rgb(0,0,0);stroke-width:1"/>
<line x1="496" y1="402" x2="500" y2="402" style="stroke:rgb(0,0,0);stroke-width:1"/>
<line x1="496" y1="406" x2="504" y2="406" style="stroke:rgb(0,0,0);stroke-width:1"/>
<line x1="496" y1="410" x2="500" y2="410" style="stroke:rgb(0,0,0);stroke-width:1"/>
<line x1="500" y1="402" x2="500" y2="410" style="stroke:rgb(0,0,0);stroke-width:1"/>
<ellipse cx="492" cy="402" rx="2" ry="2" style="rgb(0,0,0)"/>
<ellipse cx="492" cy="406" rx="2" ry="2" style="rgb(0,0,0)"/>
<ellipse cx="492" cy="410" rx="2" ry="2" style="rgb(0,0,0)"/>
<text x="505" y="426" style="font-family:Arimo;font-size:7.2pt;fill:rgb(0,0,0);text-anchor:end;dominant-baseline:central">1..∞</text>
<rect x="505" y="401" width="10" height="10" style="fill:rgb(255,255,255);stroke:rgb(0,0,0);stroke-width:1"/>
<line x1="507" y1="406" x2="513" y2="406" style="stroke:rgb(0,0,0);stroke-width:1"/>
<line x1="510" y1="403" x2="510" y2="409" style="stroke:rgb(0,0,0);stroke-width:1"/>

<line x1="465" y1="354" x2="475" y2="354" style="stroke:rgb(0,0,0);stroke-width:1;stroke-linecap:round"/>
<line x1="465" y1="406" x2="475" y2="406" style="stroke:rgb(0,0,0);stroke-width:1;stroke-linecap:round"/>
<line x1="465" y1="354" x2="465" y2="406" style="stroke:rgb(0,0,0);stroke-width:1;stroke-linecap:round"/>
<line x1="455" y1="379" x2="465" y2="379" style="stroke:rgb(0,0,0);stroke-width:1;stroke-linecap:round"/>
<path d="M421 369 L444 369 L450 375 L450 383 L444 389 L421 389 L415 383 L415 375 Z" style="fill:rgb(255,255,255);stroke:rgb(0,0,0);stroke-width:1"/>
<line x1="418" y1="379" x2="447" y2="379" style="stroke:rgb(0,0,0);stroke-width:1"/>
<ellipse cx="427" cy="379" rx="2" ry="2" style="rgb(0,0,0)"/>
<ellipse cx="432" cy="379" rx="2" ry="2" style="rgb(0,0,0)"/>
<ellipse cx="437" cy="379" rx="2" ry="2" style="rgb(0,0,0)"/>
<rect x="445" y="374" width="10" height="10" style="fill:rgb(255,255,255);stroke:rgb(0,0,0);stroke-width:1"/>
<line x1="447" y1="379" x2="453" y2="379" style="stroke:rgb(0,0,0);stroke-width:1"/>

<line x1="395" y1="379" x2="415" y2="379" style="stroke:rgb(0,0,0);stroke-width:1;stroke-linecap:round"/>
<rect x="269" y="368" width="121" height="23" style="fill:rgb(255,255,255);stroke:rgb(0,0,0);stroke-width:1"/>
<text x="329.5" y="379.5" style="font-family:Arimo;font-size:8pt;fill:rgb(0,0,0);font-weight:bold;text-anchor:middle;dominant-baseline:central">ExpedienteIndizado</text>
<rect x="385" y="374" width="10" height="10" style="fill:rgb(255,255,255);stroke:rgb(0,0,0);stroke-width:1"/>
<line x1="387" y1="379" x2="393" y2="379" style="stroke:rgb(0,0,0);stroke-width:1"/>

<rect x="458" y="446" width="119" height="23" style="fill:rgb(255,255,255);stroke:rgb(0,0,0);stroke-width:1"/>
<text x="517.5" y="457.5" style="font-family:Arimo;font-size:8pt;fill:rgb(0,0,0);font-weight:bold;text-anchor:middle;dominant-baseline:central">IdentificadorCarpeta</text>
<line x1="460" y1="448" x2="468" y2="448" style="stroke:rgb(0,0,0);stroke-width:1"/>
<line x1="460" y1="450" x2="466" y2="450" style="stroke:rgb(0,0,0);stroke-width:1"/>
<line x1="460" y1="452" x2="466" y2="452" style="stroke:rgb(0,0,0);stroke-width:1"/>
<line x1="460" y1="454" x2="466" y2="454" style="stroke:rgb(0,0,0);stroke-width:1"/>

<path d="M467 502 L490 502 L496 508 L496 516 L490 522 L467 522 L461 516 L461 508 Z" style="fill:rgb(255,255,255);stroke:rgb(0,0,0);stroke-width:1"/>
<path d="M464 499 L487 499 L493 505 L493 513 L487 519 L464 519 L458 513 L458 505 Z" style="fill:rgb(255,255,255);stroke:rgb(0,0,0);stroke-width:1"/>
<line x1="463" y1="509" x2="467" y2="509" style="stroke:rgb(0,0,0);stroke-width:1"/>
<line x1="467" y1="509" x2="471" y2="505" style="stroke:rgb(0,0,0);stroke-width:1"/>
<line x1="479" y1="505" x2="483" y2="505" style="stroke:rgb(0,0,0);stroke-width:1"/>
<line x1="479" y1="509" x2="487" y2="509" style="stroke:rgb(0,0,0);stroke-width:1"/>
<line x1="479" y1="513" x2="483" y2="513" style="stroke:rgb(0,0,0);stroke-width:1"/>
<line x1="483" y1="505" x2="483" y2="513" style="stroke:rgb(0,0,0);stroke-width:1"/>
<ellipse cx="475" cy="505" rx="2" ry="2" style="rgb(0,0,0)"/>
<ellipse cx="475" cy="509" rx="2" ry="2" style="rgb(0,0,0)"/>
<ellipse cx="475" cy="513" rx="2" ry="2" style="rgb(0,0,0)"/>
<text x="488" y="529" style="font-family:Arimo;font-size:7.2pt;fill:rgb(0,0,0);text-anchor:end;dominant-baseline:central">1..∞</text>
<rect x="488" y="504" width="10" height="10" style="fill:rgb(255,255,255);stroke:rgb(0,0,0);stroke-width:1"/>
<line x1="490" y1="509" x2="496" y2="509" style="stroke:rgb(0,0,0);stroke-width:1"/>
<line x1="493" y1="506" x2="493" y2="512" style="stroke:rgb(0,0,0);stroke-width:1"/>

<line x1="448" y1="457" x2="458" y2="457" style="stroke:rgb(0,0,0);stroke-width:1;stroke-linecap:round"/>
<line x1="448" y1="509" x2="458" y2="509" style="stroke:rgb(0,0,0);stroke-width:1;stroke-linecap:round"/>
<line x1="448" y1="457" x2="448" y2="509" style="stroke:rgb(0,0,0);stroke-width:1;stroke-linecap:round"/>
<line x1="438" y1="482" x2="448" y2="482" style="stroke:rgb(0,0,0);stroke-width:1;stroke-linecap:round"/>
<path d="M404 472 L427 472 L433 478 L433 486 L427 492 L404 492 L398 486 L398 478 Z" style="fill:rgb(255,255,255);stroke:rgb(0,0,0);stroke-width:1"/>
<line x1="401" y1="482" x2="430" y2="482" style="stroke:rgb(0,0,0);stroke-width:1"/>
<ellipse cx="410" cy="482" rx="2" ry="2" style="rgb(0,0,0)"/>
<ellipse cx="415" cy="482" rx="2" ry="2" style="rgb(0,0,0)"/>
<ellipse cx="420" cy="482" rx="2" ry="2" style="rgb(0,0,0)"/>
<rect x="428" y="477" width="10" height="10" style="fill:rgb(255,255,255);stroke:rgb(0,0,0);stroke-width:1"/>
<line x1="430" y1="482" x2="436" y2="482" style="stroke:rgb(0,0,0);stroke-width:1"/>

<line x1="378" y1="482" x2="398" y2="482" style="stroke:rgb(0,0,0);stroke-width:1;stroke-linecap:round"/>
<rect x="269" y="471" width="104" height="23" style="fill:rgb(255,255,255);stroke:rgb(0,0,0);stroke-width:1"/>
<text x="321" y="482.5" style="font-family:Arimo;font-size:8pt;fill:rgb(0,0,0);font-weight:bold;text-anchor:middle;dominant-baseline:central">CarpetaIndizada</text>
<rect x="368" y="477" width="10" height="10" style="fill:rgb(255,255,255);stroke:rgb(0,0,0);stroke-width:1"/>
<line x1="370" y1="482" x2="376" y2="482" style="stroke:rgb(0,0,0);stroke-width:1"/>

<line x1="259" y1="195" x2="269" y2="195" style="stroke:rgb(0,0,0);stroke-width:1;stroke-linecap:round"/>
<line x1="259" y1="379" x2="269" y2="379" style="stroke:rgb(0,0,0);stroke-width:1;stroke-linecap:round"/>
<line x1="259" y1="482" x2="269" y2="482" style="stroke:rgb(0,0,0);stroke-width:1;stroke-linecap:round"/>
<line x1="259" y1="195" x2="259" y2="482" style="stroke:rgb(0,0,0);stroke-width:1;stroke-linecap:round"/>
<line x1="249" y1="298" x2="259" y2="298" style="stroke:rgb(0,0,0);stroke-width:1;stroke-linecap:round"/>
<path d="M218 291 L241 291 L247 297 L247 305 L241 311 L218 311 L212 305 L212 297 Z" style="fill:rgb(255,255,255);stroke:rgb(0,0,0);stroke-width:1"/>
<path d="M215 288 L238 288 L244 294 L244 302 L238 308 L215 308 L209 302 L209 294 Z" style="fill:rgb(255,255,255);stroke:rgb(0,0,0);stroke-width:1"/>
<line x1="214" y1="298" x2="218" y2="298" style="stroke:rgb(0,0,0);stroke-width:1"/>
<line x1="218" y1="298" x2="222" y2="294" style="stroke:rgb(0,0,0);stroke-width:1"/>
<line x1="230" y1="294" x2="234" y2="294" style="stroke:rgb(0,0,0);stroke-width:1"/>
<line x1="230" y1="298" x2="238" y2="298" style="stroke:rgb(0,0,0);stroke-width:1"/>
<line x1="230" y1="302" x2="234" y2="302" style="stroke:rgb(0,0,0);stroke-width:1"/>
<line x1="234" y1="294" x2="234" y2="302" style="stroke:rgb(0,0,0);stroke-width:1"/>
<ellipse cx="226" cy="294" rx="2" ry="2" style="rgb(0,0,0)"/>
<ellipse cx="226" cy="298" rx="2" ry="2" style="rgb(0,0,0)"/>
<ellipse cx="226" cy="302" rx="2" ry="2" style="rgb(0,0,0)"/>
<text x="239" y="318" style="font-family:Arimo;font-size:7.2pt;fill:rgb(0,0,0);text-anchor:end;dominant-baseline:central">1..∞</text>
<rect x="239" y="293" width="10" height="10" style="fill:rgb(255,255,255);stroke:rgb(0,0,0);stroke-width:1"/>
<line x1="241" y1="298" x2="247" y2="298" style="stroke:rgb(0,0,0);stroke-width:1"/>

<line x1="199" y1="36" x2="209" y2="36" style="stroke:rgb(0,0,0);stroke-width:1;stroke-linecap:round"/>
<line x1="199" y1="298" x2="209" y2="298" style="stroke:rgb(0,0,0);stroke-width:1;stroke-linecap:round"/>
<line x1="199" y1="36" x2="199" y2="298" style="stroke:rgb(0,0,0);stroke-width:1;stroke-linecap:round"/>
<line x1="189" y1="272" x2="199" y2="272" style="stroke:rgb(0,0,0);stroke-width:1;stroke-linecap:round"/>
<path d="M155 262 L178 262 L184 268 L184 276 L178 282 L155 282 L149 276 L149 268 Z" style="fill:rgb(255,255,255);stroke:rgb(0,0,0);stroke-width:1"/>
<line x1="152" y1="272" x2="181" y2="272" style="stroke:rgb(0,0,0);stroke-width:1"/>
<ellipse cx="161" cy="272" rx="2" ry="2" style="rgb(0,0,0)"/>
<ellipse cx="166" cy="272" rx="2" ry="2" style="rgb(0,0,0)"/>
<ellipse cx="171" cy="272" rx="2" ry="2" style="rgb(0,0,0)"/>
<rect x="179" y="267" width="10" height="10" style="fill:rgb(255,255,255);stroke:rgb(0,0,0);stroke-width:1"/>
<line x1="181" y1="272" x2="187" y2="272" style="stroke:rgb(0,0,0);stroke-width:1"/>

<line x1="129" y1="271" x2="149" y2="271" style="stroke:rgb(0,0,0);stroke-width:1;stroke-linecap:round"/>
<rect x="20" y="260" width="104" height="23" style="fill:rgb(255,255,255);stroke:rgb(0,0,0);stroke-width:1"/>
<text x="72" y="271.5" style="font-family:Arimo;font-size:8pt;fill:rgb(0,0,0);font-weight:bold;text-anchor:middle;dominant-baseline:central">IndiceContenido</text>
<rect x="119" y="266" width="10" height="10" style="fill:rgb(255,255,255);stroke:rgb(0,0,0);stroke-width:1"/>
<line x1="121" y1="271" x2="127" y2="271" style="stroke:rgb(0,0,0);stroke-width:1"/>
</svg>
