<?xml version="1.0" standalone="no"?>
<!DOCTYPE svg PUBLIC "-//W3C//DTD SVG 1.1//EN" "http://www.w3.org/Graphics/SVG/1.1/DTD/svg11.dtd">
<svg width="357" height="381" version="1.1" xmlns="http://www.w3.org/2000/svg">
<rect x="200" y="25" width="74" height="23" style="fill:rgb(255,255,255);stroke:rgb(0,0,0);stroke-width:1"/>
<text x="237" y="36.5" style="font-family:Arimo;font-size:8pt;fill:rgb(0,0,0);font-weight:bold;text-anchor:middle;dominant-baseline:central">VersionNTI</text>
<line x1="202" y1="27" x2="210" y2="27" style="stroke:rgb(0,0,0);stroke-width:1"/>
<line x1="202" y1="29" x2="208" y2="29" style="stroke:rgb(0,0,0);stroke-width:1"/>
<line x1="202" y1="31" x2="208" y2="31" style="stroke:rgb(0,0,0);stroke-width:1"/>
<line x1="202" y1="33" x2="208" y2="33" style="stroke:rgb(0,0,0);stroke-width:1"/>

<rect x="200" y="78" width="81" height="23" style="fill:rgb(255,255,255);stroke:rgb(0,0,0);stroke-width:1"/>
<text x="240.5" y="89.5" style="font-family:Arimo;font-size:8pt;fill:rgb(0,0,0);font-weight:bold;text-anchor:middle;dominant-baseline:central">Identificador</text>
<line x1="202" y1="80" x2="210" y2="80" style="stroke:rgb(0,0,0);stroke-width:1"/>
<line x1="202" y1="82" x2="208" y2="82" style="stroke:rgb(0,0,0);stroke-width:1"/>
<line x1="202" y1="84" x2="208" y2="84" style="stroke:rgb(0,0,0);stroke-width:1"/>
<line x1="202" y1="86" x2="208" y2="86" style="stroke:rgb(0,0,0);stroke-width:1"/>

<rect x="203" y="134" width="56" height="23" style="fill:rgb(255,255,255);stroke:rgb(0,0,0);stroke-width:1"/>
<rect x="200" y="131" width="56" height="23" style="fill:rgb(255,255,255);stroke:rgb(0,0,0);stroke-width:1"/>
<text x="228" y="142.5" style="font-family:Arimo;font-size:8pt;fill:rgb(0,0,0);font-weight:bold;text-anchor:middle;dominant-baseline:central">Organo</text>
<text x="246" y="164" style="font-family:Arimo;font-size:7.2pt;fill:rgb(0,0,0);text-anchor:end;dominant-baseline:central">1..∞</text>
<line x1="202" y1="133" x2="210" y2="133" style="stroke:rgb(0,0,0);stroke-width:1"/>
<line x1="202" y1="135" x2="208" y2="135" style="stroke:rgb(0,0,0);stroke-width:1"/>
<line x1="202" y1="137" x2="208" y2="137" style="stroke:rgb(0,0,0);stroke-width:1"/>
<line x1="202" y1="139" x2="208" y2="139" style="stroke:rgb(0,0,0);stroke-width:1"/>

<rect x="200" y="184" width="147" height="23" style="fill:rgb(255,255,255);stroke:rgb(0,0,0);stroke-width:1"/>
<text x="273.5" y="195.5" style="font-family:Arimo;font-size:8pt;fill:rgb(0,0,0);font-weight:bold;text-anchor:middle;dominant-baseline:central">FechaAperturaExpediente</text>
<line x1="202" y1="186" x2="210" y2="186" style="stroke:rgb(0,0,0);stroke-width:1"/>
<line x1="202" y1="188" x2="208" y2="188" style="stroke:rgb(0,0,0);stroke-width:1"/>
<line x1="202" y1="190" x2="208" y2="190" style="stroke:rgb(0,0,0);stroke-width:1"/>
<line x1="202" y1="192" x2="208" y2="192" style="stroke:rgb(0,0,0);stroke-width:1"/>

<rect x="200" y="237" width="84" height="23" style="fill:rgb(255,255,255);stroke:rgb(0,0,0);stroke-width:1"/>
<text x="242" y="248.5" style="font-family:Arimo;font-size:8pt;fill:rgb(0,0,0);font-weight:bold;text-anchor:middle;dominant-baseline:central">Clasificacion</text>
<line x1="202" y1="239" x2="210" y2="239" style="stroke:rgb(0,0,0);stroke-width:1"/>
<line x1="202" y1="241" x2="208" y2="241" style="stroke:rgb(0,0,0);stroke-width:1"/>
<line x1="202" y1="243" x2="208" y2="243" style="stroke:rgb(0,0,0);stroke-width:1"/>
<line x1="202" y1="245" x2="208" y2="245" style="stroke:rgb(0,0,0);stroke-width:1"/>

<rect x="200" y="290" width="54" height="23" style="fill:rgb(255,255,255);stroke:rgb(0,0,0);stroke-width:1"/>
<text x="227" y="301.5" style="font-family:Arimo;font-size:8pt;fill:rgb(0,0,0);font-weight:bold;text-anchor:middle;dominant-baseline:central">Estado</text>
<line x1="202" y1="292" x2="210" y2="292" style="stroke:rgb(0,0,0);stroke-width:1"/>
<line x1="202" y1="294" x2="208" y2="294" style="stroke:rgb(0,0,0);stroke-width:1"/>
<line x1="202" y1="296" x2="208" y2="296" style="stroke:rgb(0,0,0);stroke-width:1"/>
<line x1="202" y1="298" x2="208" y2="298" style="stroke:rgb(0,0,0);stroke-width:1"/>

<rect x="203" y="346" width="72" height="23" style="fill:rgb(255,255,255);stroke:rgb(0,0,0);stroke-width:1;stroke-dasharray:4,1"/>
<rect x="200" y="343" width="72" height="23" style="fill:rgb(255,255,255);stroke:rgb(0,0,0);stroke-width:1;stroke-dasharray:4,1"/>
<text x="236" y="354.5" style="font-family:Arimo;font-size:8pt;fill:rgb(0,0,0);font-weight:bold;text-anchor:middle;dominant-baseline:central">Interesado</text>
<text x="262" y="376" style="font-family:Arimo;font-size:7.2pt;fill:rgb(0,0,0);text-anchor:end;dominant-baseline:central">0..∞</text>
<line x1="202" y1="345" x2="210" y2="345" style="stroke:rgb(0,0,0);stroke-width:1"/>
<line x1="202" y1="347" x2="208" y2="347" style="stroke:rgb(0,0,0);stroke-width:1"/>
<line x1="202" y1="349" x2="208" y2="349" style="stroke:rgb(0,0,0);stroke-width:1"/>
<line x1="202" y1="351" x2="208" y2="351" style="stroke:rgb(0,0,0);stroke-width:1"/>

<line x1="190" y1="36" x2="200" y2="36" style="stroke:rgb(0,0,0);stroke-width:1;stroke-linecap:round"/>
<line x1="190" y1="89" x2="200" y2="89" style="stroke:rgb(0,0,0);stroke-width:1;stroke-linecap:round"/>
<line x1="190" y1="142" x2="200" y2="142" style="stroke:rgb(0,0,0);stroke-width:1;stroke-linecap:round"/>
<line x1="190" y1="195" x2="200" y2="195" style="stroke:rgb(0,0,0);stroke-width:1;stroke-linecap:round"/>
<line x1="190" y1="248" x2="200" y2="248" style="stroke:rgb(0,0,0);stroke-width:1;stroke-linecap:round"/>
<line x1="190" y1="301" x2="200" y2="301" style="stroke:rgb(0,0,0);stroke-width:1;stroke-linecap:round"/>
<line x1="190" y1="354" x2="200" y2="354" style="stroke:rgb(0,0,0);stroke-width:1;stroke-linecap:round"/>
<line x1="190" y1="36" x2="190" y2="354" style="stroke:rgb(0,0,0);stroke-width:1;stroke-linecap:round"/>
<line x1="180" y1="195" x2="190" y2="195" style="stroke:rgb(0,0,0);stroke-width:1;stroke-linecap:round"/>
<path d="M146 185 L169 185 L175 191 L175 199 L169 205 L146 205 L140 199 L140 191 Z" style="fill:rgb(255,255,255);stroke:rgb(0,0,0);stroke-width:1"/>
<line x1="143" y1="195" x2="172" y2="195" style="stroke:rgb(0,0,0);stroke-width:1"/>
<ellipse cx="152" cy="195" rx="2" ry="2" style="rgb(0,0,0)"/>
<ellipse cx="157" cy="195" rx="2" ry="2" style="rgb(0,0,0)"/>
<ellipse cx="162" cy="195" rx="2" ry="2" style="rgb(0,0,0)"/>
<rect x="170" y="190" width="10" height="10" style="fill:rgb(255,255,255);stroke:rgb(0,0,0);stroke-width:1"/>
<line x1="172" y1="195" x2="178" y2="195" style="stroke:rgb(0,0,0);stroke-width:1"/>

<line x1="120" y1="195" x2="140" y2="195" style="stroke:rgb(0,0,0);stroke-width:1;stroke-linecap:round"/>
<rect x="20" y="184" width="95" height="23" style="fill:rgb(255,255,255);stroke:rgb(0,0,0);stroke-width:1"/>
<text x="67.5" y="195.5" style="font-family:Arimo;font-size:8pt;fill:rgb(0,0,0);font-weight:bold;text-anchor:middle;dominant-baseline:central">metadatosExp</text>
<rect x="110" y="190" width="10" height="10" style="fill:rgb(255,255,255);stroke:rgb(0,0,0);stroke-width:1"/>
<line x1="112" y1="195" x2="118" y2="195" style="stroke:rgb(0,0,0);stroke-width:1"/>
</svg>
