<svg version="1" xmlns="http://www.w3.org/2000/svg" width="933.333" height="933.333" viewBox="0 0 700.000000 700.000000"><path d="M324.1 1.1C278 4.4 233.9 16.5 192.7 37.2c-69.4 34.7-123.8 90-157.8 160.3-17 35.2-27.7 72.2-32.5 112.5-2.1 17.6-2.4 58.2-.6 74.5C9 447.9 30.1 503.8 65.3 552.9c37.5 52.3 89 93.5 147.3 118 45 18.8 87.7 27.4 136.9 27.3 70.9 0 134.1-18.9 193-57.7 39.2-25.8 72-58.6 98-98 38.5-58.3 57.7-122.2 57.8-192.5 0-33.4-3.4-60.8-11.4-90.8-25.1-94.5-88.7-174-175.2-219.2C454.1 9.9 389-3.6 324.1 1.1zm65.8 30.3C439.7 37.9 487.2 55.7 528 83c24.5 16.5 53.5 43 71.4 65.5 60.3 75.7 83.2 172.6 63.5 267.9-9.4 45.2-31.5 92.7-60.7 130.2-49.1 63.2-121.7 106.2-200.7 118.9-36.3 5.9-67.7 5.9-104 0-54.4-8.8-105.3-31.4-149-66.1-14-11.2-37.5-34.7-48.9-48.9-37.3-46.6-59.9-99.9-68.2-161-2.5-17.9-2.5-61.6-.1-79.8 8.1-60.6 30.5-113.7 67.8-160.8 10.6-13.4 36.4-39.2 49.8-49.8 48-38 106.9-62.3 164.6-68 6.1-.6 12.4-1.3 14-1.5 6.9-1 50.8.3 62.4 1.8z"/><path d="M205.3 255.9c-10.1 3.4-16.6 9.4-21.3 19.4-8.9 18.6-1 40.1 18 49.1 5.8 2.8 7.5 3.1 15.5 3.1 8.1 0 9.7-.4 15.6-3.3 7.8-3.8 14-10 17.7-18 2.4-5 2.7-6.9 2.7-15.7-.1-8-.5-10.9-2.2-14.7-2.5-5.5-9.2-13.1-14.4-16.4-8.5-5.3-22-6.9-31.6-3.5zM456.2 256c-15.2 5.4-24.4 18.7-24.4 35 0 10.2 2.8 17.4 9.8 24.9 7.8 8.4 15 11.5 26.9 11.6 7.7 0 9.8-.4 14.7-2.7 7.6-3.5 14.8-10.4 18.4-17.5 2.7-5.3 2.9-6.7 2.9-16.3 0-9.4-.3-11.1-2.7-16.1-8.3-16.8-28.4-25.1-45.6-18.9zM200 465.2c-7.6 4-10.2 13.3-5.6 20.3 2.4 3.6 11.9 9.5 30.1 18.5 22 10.8 39.4 16.9 62.1 21.5 66.1 13.4 139.8 2 205.8-31.7 10.3-5.3 13-8.1 14.2-14.5 1-5.1-2.9-12.1-8-14.4-5.7-2.6-8.4-2.4-15.2 1.1-38.5 19.7-76.5 31.3-115.3 35.1-17 1.7-51.6.6-66.4-2-27.9-4.9-52.8-13.6-73.2-25.3-20.9-12-21.4-12.1-28.5-8.6z"/></svg>