<?xml version="1.0" standalone="no"?>
<!DOCTYPE svg PUBLIC "-//W3C//DTD SVG 1.1//EN" "http://www.w3.org/Graphics/SVG/1.1/DTD/svg11.dtd">
<svg width="355" height="222" version="1.1" xmlns="http://www.w3.org/2000/svg">
<rect x="238" y="25" width="69" height="23" style="fill:rgb(255,255,255);stroke:rgb(0,0,0);stroke-width:1"/>
<text x="272.5" y="36.5" style="font-family:Liberation Sans;font-size:8pt;fill:rgb(0,0,0);font-weight:bold;text-anchor:middle;dominant-baseline:central">DatosXML</text>
<line x1="240" y1="27" x2="248" y2="27" style="stroke:rgb(0,0,0);stroke-width:1"/>
<line x1="240" y1="29" x2="246" y2="29" style="stroke:rgb(0,0,0);stroke-width:1"/>
<line x1="240" y1="31" x2="246" y2="31" style="stroke:rgb(0,0,0);stroke-width:1"/>
<line x1="240" y1="33" x2="246" y2="33" style="stroke:rgb(0,0,0);stroke-width:1"/>

<rect x="238" y="78" width="81" height="23" style="fill:rgb(255,255,255);stroke:rgb(0,0,0);stroke-width:1"/>
<text x="278.5" y="89.5" style="font-family:Liberation Sans;font-size:8pt;fill:rgb(0,0,0);font-weight:bold;text-anchor:middle;dominant-baseline:central">ValorBinario</text>
<line x1="240" y1="80" x2="248" y2="80" style="stroke:rgb(0,0,0);stroke-width:1"/>
<line x1="240" y1="82" x2="246" y2="82" style="stroke:rgb(0,0,0);stroke-width:1"/>
<line x1="240" y1="84" x2="246" y2="84" style="stroke:rgb(0,0,0);stroke-width:1"/>
<line x1="240" y1="86" x2="246" y2="86" style="stroke:rgb(0,0,0);stroke-width:1"/>

<rect x="238" y="131" width="107" height="23" style="fill:rgb(255,255,255);stroke:rgb(0,0,0);stroke-width:1"/>
<text x="291.5" y="142.5" style="font-family:Liberation Sans;font-size:8pt;fill:rgb(0,0,0);font-weight:bold;text-anchor:middle;dominant-baseline:central">referenciaFichero</text>
<line x1="240" y1="133" x2="248" y2="133" style="stroke:rgb(0,0,0);stroke-width:1"/>
<line x1="240" y1="135" x2="246" y2="135" style="stroke:rgb(0,0,0);stroke-width:1"/>
<line x1="240" y1="137" x2="246" y2="137" style="stroke:rgb(0,0,0);stroke-width:1"/>
<line x1="240" y1="139" x2="246" y2="139" style="stroke:rgb(0,0,0);stroke-width:1"/>

<line x1="228" y1="36" x2="238" y2="36" style="stroke:rgb(0,0,0);stroke-width:1;stroke-linecap:round"/>
<line x1="228" y1="89" x2="238" y2="89" style="stroke:rgb(0,0,0);stroke-width:1;stroke-linecap:round"/>
<line x1="228" y1="142" x2="238" y2="142" style="stroke:rgb(0,0,0);stroke-width:1;stroke-linecap:round"/>
<line x1="228" y1="36" x2="228" y2="142" style="stroke:rgb(0,0,0);stroke-width:1;stroke-linecap:round"/>
<line x1="218" y1="89" x2="228" y2="89" style="stroke:rgb(0,0,0);stroke-width:1;stroke-linecap:round"/>
<path d="M184 79 L207 79 L213 85 L213 93 L207 99 L184 99 L178 93 L178 85 Z" style="fill:rgb(255,255,255);stroke:rgb(0,0,0);stroke-width:1"/>
<line x1="183" y1="89" x2="187" y2="89" style="stroke:rgb(0,0,0);stroke-width:1"/>
<line x1="187" y1="89" x2="191" y2="85" style="stroke:rgb(0,0,0);stroke-width:1"/>
<line x1="199" y1="85" x2="203" y2="85" style="stroke:rgb(0,0,0);stroke-width:1"/>
<line x1="199" y1="89" x2="207" y2="89" style="stroke:rgb(0,0,0);stroke-width:1"/>
<line x1="199" y1="93" x2="203" y2="93" style="stroke:rgb(0,0,0);stroke-width:1"/>
<line x1="203" y1="85" x2="203" y2="93" style="stroke:rgb(0,0,0);stroke-width:1"/>
<ellipse cx="195" cy="85" rx="2" ry="2" style="rgb(0,0,0)"/>
<ellipse cx="195" cy="89" rx="2" ry="2" style="rgb(0,0,0)"/>
<ellipse cx="195" cy="93" rx="2" ry="2" style="rgb(0,0,0)"/>
<rect x="208" y="84" width="10" height="10" style="fill:rgb(255,255,255);stroke:rgb(0,0,0);stroke-width:1"/>
<line x1="210" y1="89" x2="216" y2="89" style="stroke:rgb(0,0,0);stroke-width:1"/>

<rect x="178" y="184" width="98" height="23" style="fill:rgb(255,255,255);stroke:rgb(0,0,0);stroke-width:1"/>
<text x="227" y="195.5" style="font-family:Liberation Sans;font-size:8pt;fill:rgb(0,0,0);font-weight:bold;text-anchor:middle;dominant-baseline:central">NombreFormato</text>
<line x1="180" y1="186" x2="188" y2="186" style="stroke:rgb(0,0,0);stroke-width:1"/>
<line x1="180" y1="188" x2="186" y2="188" style="stroke:rgb(0,0,0);stroke-width:1"/>
<line x1="180" y1="190" x2="186" y2="190" style="stroke:rgb(0,0,0);stroke-width:1"/>
<line x1="180" y1="192" x2="186" y2="192" style="stroke:rgb(0,0,0);stroke-width:1"/>

<line x1="168" y1="89" x2="178" y2="89" style="stroke:rgb(0,0,0);stroke-width:1;stroke-linecap:round"/>
<line x1="168" y1="195" x2="178" y2="195" style="stroke:rgb(0,0,0);stroke-width:1;stroke-linecap:round"/>
<line x1="168" y1="89" x2="168" y2="195" style="stroke:rgb(0,0,0);stroke-width:1;stroke-linecap:round"/>
<line x1="158" y1="116" x2="168" y2="116" style="stroke:rgb(0,0,0);stroke-width:1;stroke-linecap:round"/>
<path d="M124 106 L147 106 L153 112 L153 120 L147 126 L124 126 L118 120 L118 112 Z" style="fill:rgb(255,255,255);stroke:rgb(0,0,0);stroke-width:1"/>
<line x1="121" y1="116" x2="150" y2="116" style="stroke:rgb(0,0,0);stroke-width:1"/>
<ellipse cx="130" cy="116" rx="2" ry="2" style="rgb(0,0,0)"/>
<ellipse cx="135" cy="116" rx="2" ry="2" style="rgb(0,0,0)"/>
<ellipse cx="140" cy="116" rx="2" ry="2" style="rgb(0,0,0)"/>
<rect x="148" y="111" width="10" height="10" style="fill:rgb(255,255,255);stroke:rgb(0,0,0);stroke-width:1"/>
<line x1="150" y1="116" x2="156" y2="116" style="stroke:rgb(0,0,0);stroke-width:1"/>

<line x1="98" y1="115" x2="118" y2="115" style="stroke:rgb(0,0,0);stroke-width:1;stroke-linecap:round"/>
<rect x="20" y="104" width="73" height="23" style="fill:rgb(255,255,255);stroke:rgb(0,0,0);stroke-width:1"/>
<text x="56.5" y="115.5" style="font-family:Liberation Sans;font-size:8pt;fill:rgb(0,0,0);font-weight:bold;text-anchor:middle;dominant-baseline:central">contenido</text>
<rect x="88" y="110" width="10" height="10" style="fill:rgb(255,255,255);stroke:rgb(0,0,0);stroke-width:1"/>
<line x1="90" y1="115" x2="96" y2="115" style="stroke:rgb(0,0,0);stroke-width:1"/>
</svg>
