<?xml version="1.0" standalone="no"?>
<!DOCTYPE svg PUBLIC "-//W3C//DTD SVG 1.1//EN" "http://www.w3.org/Graphics/SVG/1.1/DTD/svg11.dtd">
<svg width="944" height="1070" version="1.1" xmlns="http://www.w3.org/2000/svg">
<rect x="349" y="25" width="136" height="23" style="fill:rgb(255,255,255);stroke:rgb(0,0,0);stroke-width:1"/>
<text x="417" y="36.5" style="font-family:Arimo;font-size:8pt;fill:rgb(0,0,0);font-weight:bold;text-anchor:middle;dominant-baseline:central">FechaIndiceElectronico</text>
<line x1="351" y1="27" x2="359" y2="27" style="stroke:rgb(0,0,0);stroke-width:1"/>
<line x1="351" y1="29" x2="357" y2="29" style="stroke:rgb(0,0,0);stroke-width:1"/>
<line x1="351" y1="31" x2="357" y2="31" style="stroke:rgb(0,0,0);stroke-width:1"/>
<line x1="351" y1="33" x2="357" y2="33" style="stroke:rgb(0,0,0);stroke-width:1"/>

<rect x="615" y="78" width="136" height="23" style="fill:rgb(255,255,255);stroke:rgb(0,0,0);stroke-width:1"/>
<text x="683" y="89.5" style="font-family:Arimo;font-size:8pt;fill:rgb(0,0,0);font-weight:bold;text-anchor:middle;dominant-baseline:central">IdentificadorDocumento</text>
<line x1="617" y1="80" x2="625" y2="80" style="stroke:rgb(0,0,0);stroke-width:1"/>
<line x1="617" y1="82" x2="623" y2="82" style="stroke:rgb(0,0,0);stroke-width:1"/>
<line x1="617" y1="84" x2="623" y2="84" style="stroke:rgb(0,0,0);stroke-width:1"/>
<line x1="617" y1="86" x2="623" y2="86" style="stroke:rgb(0,0,0);stroke-width:1"/>

<rect x="615" y="131" width="77" height="23" style="fill:rgb(255,255,255);stroke:rgb(0,0,0);stroke-width:1"/>
<text x="653.5" y="142.5" style="font-family:Arimo;font-size:8pt;fill:rgb(0,0,0);font-weight:bold;text-anchor:middle;dominant-baseline:central">ValorHuella</text>
<line x1="617" y1="133" x2="625" y2="133" style="stroke:rgb(0,0,0);stroke-width:1"/>
<line x1="617" y1="135" x2="623" y2="135" style="stroke:rgb(0,0,0);stroke-width:1"/>
<line x1="617" y1="137" x2="623" y2="137" style="stroke:rgb(0,0,0);stroke-width:1"/>
<line x1="617" y1="139" x2="623" y2="139" style="stroke:rgb(0,0,0);stroke-width:1"/>

<rect x="615" y="184" width="105" height="23" style="fill:rgb(255,255,255);stroke:rgb(0,0,0);stroke-width:1"/>
<text x="667.5" y="195.5" style="font-family:Arimo;font-size:8pt;fill:rgb(0,0,0);font-weight:bold;text-anchor:middle;dominant-baseline:central">FuncionResumen</text>
<line x1="617" y1="186" x2="625" y2="186" style="stroke:rgb(0,0,0);stroke-width:1"/>
<line x1="617" y1="188" x2="623" y2="188" style="stroke:rgb(0,0,0);stroke-width:1"/>
<line x1="617" y1="190" x2="623" y2="190" style="stroke:rgb(0,0,0);stroke-width:1"/>
<line x1="617" y1="192" x2="623" y2="192" style="stroke:rgb(0,0,0);stroke-width:1"/>

<rect x="615" y="237" width="173" height="23" style="fill:rgb(255,255,255);stroke:rgb(0,0,0);stroke-width:1;stroke-dasharray:4,1"/>
<text x="701.5" y="248.5" style="font-family:Arimo;font-size:8pt;fill:rgb(0,0,0);font-weight:bold;text-anchor:middle;dominant-baseline:central">FechaIncorporacionExpediente</text>
<line x1="617" y1="239" x2="625" y2="239" style="stroke:rgb(0,0,0);stroke-width:1"/>
<line x1="617" y1="241" x2="623" y2="241" style="stroke:rgb(0,0,0);stroke-width:1"/>
<line x1="617" y1="243" x2="623" y2="243" style="stroke:rgb(0,0,0);stroke-width:1"/>
<line x1="617" y1="245" x2="623" y2="245" style="stroke:rgb(0,0,0);stroke-width:1"/>

<rect x="615" y="290" width="160" height="23" style="fill:rgb(255,255,255);stroke:rgb(0,0,0);stroke-width:1;stroke-dasharray:4,1"/>
<text x="695" y="301.5" style="font-family:Arimo;font-size:8pt;fill:rgb(0,0,0);font-weight:bold;text-anchor:middle;dominant-baseline:central">OrdenDocumentoExpediente</text>
<line x1="617" y1="292" x2="625" y2="292" style="stroke:rgb(0,0,0);stroke-width:1"/>
<line x1="617" y1="294" x2="623" y2="294" style="stroke:rgb(0,0,0);stroke-width:1"/>
<line x1="617" y1="296" x2="623" y2="296" style="stroke:rgb(0,0,0);stroke-width:1"/>
<line x1="617" y1="298" x2="623" y2="298" style="stroke:rgb(0,0,0);stroke-width:1"/>

<line x1="605" y1="89" x2="615" y2="89" style="stroke:rgb(0,0,0);stroke-width:1;stroke-linecap:round"/>
<line x1="605" y1="142" x2="615" y2="142" style="stroke:rgb(0,0,0);stroke-width:1;stroke-linecap:round"/>
<line x1="605" y1="195" x2="615" y2="195" style="stroke:rgb(0,0,0);stroke-width:1;stroke-linecap:round"/>
<line x1="605" y1="248" x2="615" y2="248" style="stroke:rgb(0,0,0);stroke-width:1;stroke-linecap:round"/>
<line x1="605" y1="301" x2="615" y2="301" style="stroke:rgb(0,0,0);stroke-width:1;stroke-linecap:round"/>
<line x1="605" y1="89" x2="605" y2="301" style="stroke:rgb(0,0,0);stroke-width:1;stroke-linecap:round"/>
<line x1="595" y1="195" x2="605" y2="195" style="stroke:rgb(0,0,0);stroke-width:1;stroke-linecap:round"/>
<path d="M561 185 L584 185 L590 191 L590 199 L584 205 L561 205 L555 199 L555 191 Z" style="fill:rgb(255,255,255);stroke:rgb(0,0,0);stroke-width:1"/>
<line x1="558" y1="195" x2="587" y2="195" style="stroke:rgb(0,0,0);stroke-width:1"/>
<ellipse cx="567" cy="195" rx="2" ry="2" style="rgb(0,0,0)"/>
<ellipse cx="572" cy="195" rx="2" ry="2" style="rgb(0,0,0)"/>
<ellipse cx="577" cy="195" rx="2" ry="2" style="rgb(0,0,0)"/>
<rect x="585" y="190" width="10" height="10" style="fill:rgb(255,255,255);stroke:rgb(0,0,0);stroke-width:1"/>
<line x1="587" y1="195" x2="593" y2="195" style="stroke:rgb(0,0,0);stroke-width:1"/>

<line x1="535" y1="195" x2="555" y2="195" style="stroke:rgb(0,0,0);stroke-width:1;stroke-linecap:round"/>
<rect x="409" y="184" width="121" height="23" style="fill:rgb(255,255,255);stroke:rgb(0,0,0);stroke-width:1"/>
<text x="469.5" y="195.5" style="font-family:Arimo;font-size:8pt;fill:rgb(0,0,0);font-weight:bold;text-anchor:middle;dominant-baseline:central">DocumentoIndizado</text>
<rect x="525" y="190" width="10" height="10" style="fill:rgb(255,255,255);stroke:rgb(0,0,0);stroke-width:1"/>
<line x1="527" y1="195" x2="533" y2="195" style="stroke:rgb(0,0,0);stroke-width:1"/>

<rect x="615" y="343" width="136" height="23" style="fill:rgb(255,255,255);stroke:rgb(0,0,0);stroke-width:1"/>
<text x="683" y="354.5" style="font-family:Arimo;font-size:8pt;fill:rgb(0,0,0);font-weight:bold;text-anchor:middle;dominant-baseline:central">FechaIndiceElectronico</text>
<line x1="617" y1="345" x2="625" y2="345" style="stroke:rgb(0,0,0);stroke-width:1"/>
<line x1="617" y1="347" x2="623" y2="347" style="stroke:rgb(0,0,0);stroke-width:1"/>
<line x1="617" y1="349" x2="623" y2="349" style="stroke:rgb(0,0,0);stroke-width:1"/>
<line x1="617" y1="351" x2="623" y2="351" style="stroke:rgb(0,0,0);stroke-width:1"/>

<rect x="675" y="396" width="121" height="23" style="fill:rgb(255,255,255);stroke:rgb(0,0,0);stroke-width:1"/>
<text x="735.5" y="407.5" style="font-family:Arimo;font-size:8pt;fill:rgb(0,0,0);font-weight:bold;text-anchor:middle;dominant-baseline:central">DocumentoIndizado</text>
<rect x="791" y="402" width="10" height="10" style="fill:rgb(255,255,255);stroke:rgb(0,0,0);stroke-width:1"/>
<line x1="793" y1="407" x2="799" y2="407" style="stroke:rgb(0,0,0);stroke-width:1"/>
<line x1="796" y1="404" x2="796" y2="410" style="stroke:rgb(0,0,0);stroke-width:1"/>

<rect x="675" y="449" width="121" height="23" style="fill:rgb(255,255,255);stroke:rgb(0,0,0);stroke-width:1"/>
<text x="735.5" y="460.5" style="font-family:Arimo;font-size:8pt;fill:rgb(0,0,0);font-weight:bold;text-anchor:middle;dominant-baseline:central">ExpedienteIndizado</text>
<rect x="791" y="455" width="10" height="10" style="fill:rgb(255,255,255);stroke:rgb(0,0,0);stroke-width:1"/>
<line x1="793" y1="460" x2="799" y2="460" style="stroke:rgb(0,0,0);stroke-width:1"/>
<line x1="796" y1="457" x2="796" y2="463" style="stroke:rgb(0,0,0);stroke-width:1"/>

<rect x="675" y="502" width="104" height="23" style="fill:rgb(255,255,255);stroke:rgb(0,0,0);stroke-width:1"/>
<text x="727" y="513.5" style="font-family:Arimo;font-size:8pt;fill:rgb(0,0,0);font-weight:bold;text-anchor:middle;dominant-baseline:central">CarpetaIndizada</text>
<rect x="774" y="508" width="10" height="10" style="fill:rgb(255,255,255);stroke:rgb(0,0,0);stroke-width:1"/>
<line x1="776" y1="513" x2="782" y2="513" style="stroke:rgb(0,0,0);stroke-width:1"/>
<line x1="779" y1="510" x2="779" y2="516" style="stroke:rgb(0,0,0);stroke-width:1"/>

<line x1="665" y1="407" x2="675" y2="407" style="stroke:rgb(0,0,0);stroke-width:1;stroke-linecap:round"/>
<line x1="665" y1="460" x2="675" y2="460" style="stroke:rgb(0,0,0);stroke-width:1;stroke-linecap:round"/>
<line x1="665" y1="513" x2="675" y2="513" style="stroke:rgb(0,0,0);stroke-width:1;stroke-linecap:round"/>
<line x1="665" y1="407" x2="665" y2="513" style="stroke:rgb(0,0,0);stroke-width:1;stroke-linecap:round"/>
<line x1="655" y1="460" x2="665" y2="460" style="stroke:rgb(0,0,0);stroke-width:1;stroke-linecap:round"/>
<path d="M624 453 L647 453 L653 459 L653 467 L647 473 L624 473 L618 467 L618 459 Z" style="fill:rgb(255,255,255);stroke:rgb(0,0,0);stroke-width:1"/>
<path d="M621 450 L644 450 L650 456 L650 464 L644 470 L621 470 L615 464 L615 456 Z" style="fill:rgb(255,255,255);stroke:rgb(0,0,0);stroke-width:1"/>
<line x1="620" y1="460" x2="624" y2="460" style="stroke:rgb(0,0,0);stroke-width:1"/>
<line x1="624" y1="460" x2="628" y2="456" style="stroke:rgb(0,0,0);stroke-width:1"/>
<line x1="636" y1="456" x2="640" y2="456" style="stroke:rgb(0,0,0);stroke-width:1"/>
<line x1="636" y1="460" x2="644" y2="460" style="stroke:rgb(0,0,0);stroke-width:1"/>
<line x1="636" y1="464" x2="640" y2="464" style="stroke:rgb(0,0,0);stroke-width:1"/>
<line x1="640" y1="456" x2="640" y2="464" style="stroke:rgb(0,0,0);stroke-width:1"/>
<ellipse cx="632" cy="456" rx="2" ry="2" style="rgb(0,0,0)"/>
<ellipse cx="632" cy="460" rx="2" ry="2" style="rgb(0,0,0)"/>
<ellipse cx="632" cy="464" rx="2" ry="2" style="rgb(0,0,0)"/>
<text x="645" y="480" style="font-family:Arimo;font-size:7.2pt;fill:rgb(0,0,0);text-anchor:end;dominant-baseline:central">1..∞</text>
<rect x="645" y="455" width="10" height="10" style="fill:rgb(255,255,255);stroke:rgb(0,0,0);stroke-width:1"/>
<line x1="647" y1="460" x2="653" y2="460" style="stroke:rgb(0,0,0);stroke-width:1"/>

<line x1="605" y1="354" x2="615" y2="354" style="stroke:rgb(0,0,0);stroke-width:1;stroke-linecap:round"/>
<line x1="605" y1="460" x2="615" y2="460" style="stroke:rgb(0,0,0);stroke-width:1;stroke-linecap:round"/>
<line x1="605" y1="354" x2="605" y2="460" style="stroke:rgb(0,0,0);stroke-width:1;stroke-linecap:round"/>
<line x1="595" y1="434" x2="605" y2="434" style="stroke:rgb(0,0,0);stroke-width:1;stroke-linecap:round"/>
<path d="M561 424 L584 424 L590 430 L590 438 L584 444 L561 444 L555 438 L555 430 Z" style="fill:rgb(255,255,255);stroke:rgb(0,0,0);stroke-width:1"/>
<line x1="558" y1="434" x2="587" y2="434" style="stroke:rgb(0,0,0);stroke-width:1"/>
<ellipse cx="567" cy="434" rx="2" ry="2" style="rgb(0,0,0)"/>
<ellipse cx="572" cy="434" rx="2" ry="2" style="rgb(0,0,0)"/>
<ellipse cx="577" cy="434" rx="2" ry="2" style="rgb(0,0,0)"/>
<rect x="585" y="429" width="10" height="10" style="fill:rgb(255,255,255);stroke:rgb(0,0,0);stroke-width:1"/>
<line x1="587" y1="434" x2="593" y2="434" style="stroke:rgb(0,0,0);stroke-width:1"/>

<line x1="535" y1="433" x2="555" y2="433" style="stroke:rgb(0,0,0);stroke-width:1;stroke-linecap:round"/>
<rect x="409" y="422" width="121" height="23" style="fill:rgb(255,255,255);stroke:rgb(0,0,0);stroke-width:1"/>
<text x="469.5" y="433.5" style="font-family:Arimo;font-size:8pt;fill:rgb(0,0,0);font-weight:bold;text-anchor:middle;dominant-baseline:central">ExpedienteIndizado</text>
<rect x="525" y="428" width="10" height="10" style="fill:rgb(255,255,255);stroke:rgb(0,0,0);stroke-width:1"/>
<line x1="527" y1="433" x2="533" y2="433" style="stroke:rgb(0,0,0);stroke-width:1"/>

<rect x="598" y="555" width="119" height="23" style="fill:rgb(255,255,255);stroke:rgb(0,0,0);stroke-width:1"/>
<text x="657.5" y="566.5" style="font-family:Arimo;font-size:8pt;fill:rgb(0,0,0);font-weight:bold;text-anchor:middle;dominant-baseline:central">IdentificadorCarpeta</text>
<line x1="600" y1="557" x2="608" y2="557" style="stroke:rgb(0,0,0);stroke-width:1"/>
<line x1="600" y1="559" x2="606" y2="559" style="stroke:rgb(0,0,0);stroke-width:1"/>
<line x1="600" y1="561" x2="606" y2="561" style="stroke:rgb(0,0,0);stroke-width:1"/>
<line x1="600" y1="563" x2="606" y2="563" style="stroke:rgb(0,0,0);stroke-width:1"/>

<rect x="658" y="608" width="121" height="23" style="fill:rgb(255,255,255);stroke:rgb(0,0,0);stroke-width:1"/>
<text x="718.5" y="619.5" style="font-family:Arimo;font-size:8pt;fill:rgb(0,0,0);font-weight:bold;text-anchor:middle;dominant-baseline:central">DocumentoIndizado</text>
<rect x="774" y="614" width="10" height="10" style="fill:rgb(255,255,255);stroke:rgb(0,0,0);stroke-width:1"/>
<line x1="776" y1="619" x2="782" y2="619" style="stroke:rgb(0,0,0);stroke-width:1"/>
<line x1="779" y1="616" x2="779" y2="622" style="stroke:rgb(0,0,0);stroke-width:1"/>

<rect x="658" y="661" width="121" height="23" style="fill:rgb(255,255,255);stroke:rgb(0,0,0);stroke-width:1"/>
<text x="718.5" y="672.5" style="font-family:Arimo;font-size:8pt;fill:rgb(0,0,0);font-weight:bold;text-anchor:middle;dominant-baseline:central">ExpedienteIndizado</text>
<rect x="774" y="667" width="10" height="10" style="fill:rgb(255,255,255);stroke:rgb(0,0,0);stroke-width:1"/>
<line x1="776" y1="672" x2="782" y2="672" style="stroke:rgb(0,0,0);stroke-width:1"/>
<line x1="779" y1="669" x2="779" y2="675" style="stroke:rgb(0,0,0);stroke-width:1"/>

<rect x="658" y="714" width="104" height="23" style="fill:rgb(255,255,255);stroke:rgb(0,0,0);stroke-width:1"/>
<text x="710" y="725.5" style="font-family:Arimo;font-size:8pt;fill:rgb(0,0,0);font-weight:bold;text-anchor:middle;dominant-baseline:central">CarpetaIndizada</text>
<rect x="757" y="720" width="10" height="10" style="fill:rgb(255,255,255);stroke:rgb(0,0,0);stroke-width:1"/>
<line x1="759" y1="725" x2="765" y2="725" style="stroke:rgb(0,0,0);stroke-width:1"/>
<line x1="762" y1="722" x2="762" y2="728" style="stroke:rgb(0,0,0);stroke-width:1"/>

<line x1="648" y1="619" x2="658" y2="619" style="stroke:rgb(0,0,0);stroke-width:1;stroke-linecap:round"/>
<line x1="648" y1="672" x2="658" y2="672" style="stroke:rgb(0,0,0);stroke-width:1;stroke-linecap:round"/>
<line x1="648" y1="725" x2="658" y2="725" style="stroke:rgb(0,0,0);stroke-width:1;stroke-linecap:round"/>
<line x1="648" y1="619" x2="648" y2="725" style="stroke:rgb(0,0,0);stroke-width:1;stroke-linecap:round"/>
<line x1="638" y1="672" x2="648" y2="672" style="stroke:rgb(0,0,0);stroke-width:1;stroke-linecap:round"/>
<path d="M607 665 L630 665 L636 671 L636 679 L630 685 L607 685 L601 679 L601 671 Z" style="fill:rgb(255,255,255);stroke:rgb(0,0,0);stroke-width:1"/>
<path d="M604 662 L627 662 L633 668 L633 676 L627 682 L604 682 L598 676 L598 668 Z" style="fill:rgb(255,255,255);stroke:rgb(0,0,0);stroke-width:1"/>
<line x1="603" y1="672" x2="607" y2="672" style="stroke:rgb(0,0,0);stroke-width:1"/>
<line x1="607" y1="672" x2="611" y2="668" style="stroke:rgb(0,0,0);stroke-width:1"/>
<line x1="619" y1="668" x2="623" y2="668" style="stroke:rgb(0,0,0);stroke-width:1"/>
<line x1="619" y1="672" x2="627" y2="672" style="stroke:rgb(0,0,0);stroke-width:1"/>
<line x1="619" y1="676" x2="623" y2="676" style="stroke:rgb(0,0,0);stroke-width:1"/>
<line x1="623" y1="668" x2="623" y2="676" style="stroke:rgb(0,0,0);stroke-width:1"/>
<ellipse cx="615" cy="668" rx="2" ry="2" style="rgb(0,0,0)"/>
<ellipse cx="615" cy="672" rx="2" ry="2" style="rgb(0,0,0)"/>
<ellipse cx="615" cy="676" rx="2" ry="2" style="rgb(0,0,0)"/>
<text x="628" y="692" style="font-family:Arimo;font-size:7.2pt;fill:rgb(0,0,0);text-anchor:end;dominant-baseline:central">1..∞</text>
<rect x="628" y="667" width="10" height="10" style="fill:rgb(255,255,255);stroke:rgb(0,0,0);stroke-width:1"/>
<line x1="630" y1="672" x2="636" y2="672" style="stroke:rgb(0,0,0);stroke-width:1"/>

<line x1="588" y1="566" x2="598" y2="566" style="stroke:rgb(0,0,0);stroke-width:1;stroke-linecap:round"/>
<line x1="588" y1="672" x2="598" y2="672" style="stroke:rgb(0,0,0);stroke-width:1;stroke-linecap:round"/>
<line x1="588" y1="566" x2="588" y2="672" style="stroke:rgb(0,0,0);stroke-width:1;stroke-linecap:round"/>
<line x1="578" y1="646" x2="588" y2="646" style="stroke:rgb(0,0,0);stroke-width:1;stroke-linecap:round"/>
<path d="M544 636 L567 636 L573 642 L573 650 L567 656 L544 656 L538 650 L538 642 Z" style="fill:rgb(255,255,255);stroke:rgb(0,0,0);stroke-width:1"/>
<line x1="541" y1="646" x2="570" y2="646" style="stroke:rgb(0,0,0);stroke-width:1"/>
<ellipse cx="550" cy="646" rx="2" ry="2" style="rgb(0,0,0)"/>
<ellipse cx="555" cy="646" rx="2" ry="2" style="rgb(0,0,0)"/>
<ellipse cx="560" cy="646" rx="2" ry="2" style="rgb(0,0,0)"/>
<rect x="568" y="641" width="10" height="10" style="fill:rgb(255,255,255);stroke:rgb(0,0,0);stroke-width:1"/>
<line x1="570" y1="646" x2="576" y2="646" style="stroke:rgb(0,0,0);stroke-width:1"/>

<line x1="518" y1="645" x2="538" y2="645" style="stroke:rgb(0,0,0);stroke-width:1;stroke-linecap:round"/>
<rect x="409" y="634" width="104" height="23" style="fill:rgb(255,255,255);stroke:rgb(0,0,0);stroke-width:1"/>
<text x="461" y="645.5" style="font-family:Arimo;font-size:8pt;fill:rgb(0,0,0);font-weight:bold;text-anchor:middle;dominant-baseline:central">CarpetaIndizada</text>
<rect x="508" y="640" width="10" height="10" style="fill:rgb(255,255,255);stroke:rgb(0,0,0);stroke-width:1"/>
<line x1="510" y1="645" x2="516" y2="645" style="stroke:rgb(0,0,0);stroke-width:1"/>

<line x1="399" y1="195" x2="409" y2="195" style="stroke:rgb(0,0,0);stroke-width:1;stroke-linecap:round"/>
<line x1="399" y1="433" x2="409" y2="433" style="stroke:rgb(0,0,0);stroke-width:1;stroke-linecap:round"/>
<line x1="399" y1="645" x2="409" y2="645" style="stroke:rgb(0,0,0);stroke-width:1;stroke-linecap:round"/>
<line x1="399" y1="195" x2="399" y2="645" style="stroke:rgb(0,0,0);stroke-width:1;stroke-linecap:round"/>
<line x1="389" y1="407" x2="399" y2="407" style="stroke:rgb(0,0,0);stroke-width:1;stroke-linecap:round"/>
<path d="M358 400 L381 400 L387 406 L387 414 L381 420 L358 420 L352 414 L352 406 Z" style="fill:rgb(255,255,255);stroke:rgb(0,0,0);stroke-width:1"/>
<path d="M355 397 L378 397 L384 403 L384 411 L378 417 L355 417 L349 411 L349 403 Z" style="fill:rgb(255,255,255);stroke:rgb(0,0,0);stroke-width:1"/>
<line x1="354" y1="407" x2="358" y2="407" style="stroke:rgb(0,0,0);stroke-width:1"/>
<line x1="358" y1="407" x2="362" y2="403" style="stroke:rgb(0,0,0);stroke-width:1"/>
<line x1="370" y1="403" x2="374" y2="403" style="stroke:rgb(0,0,0);stroke-width:1"/>
<line x1="370" y1="407" x2="378" y2="407" style="stroke:rgb(0,0,0);stroke-width:1"/>
<line x1="370" y1="411" x2="374" y2="411" style="stroke:rgb(0,0,0);stroke-width:1"/>
<line x1="374" y1="403" x2="374" y2="411" style="stroke:rgb(0,0,0);stroke-width:1"/>
<ellipse cx="366" cy="403" rx="2" ry="2" style="rgb(0,0,0)"/>
<ellipse cx="366" cy="407" rx="2" ry="2" style="rgb(0,0,0)"/>
<ellipse cx="366" cy="411" rx="2" ry="2" style="rgb(0,0,0)"/>
<text x="379" y="427" style="font-family:Arimo;font-size:7.2pt;fill:rgb(0,0,0);text-anchor:end;dominant-baseline:central">1..∞</text>
<rect x="379" y="402" width="10" height="10" style="fill:rgb(255,255,255);stroke:rgb(0,0,0);stroke-width:1"/>
<line x1="381" y1="407" x2="387" y2="407" style="stroke:rgb(0,0,0);stroke-width:1"/>

<line x1="339" y1="36" x2="349" y2="36" style="stroke:rgb(0,0,0);stroke-width:1;stroke-linecap:round"/>
<line x1="339" y1="407" x2="349" y2="407" style="stroke:rgb(0,0,0);stroke-width:1;stroke-linecap:round"/>
<line x1="339" y1="36" x2="339" y2="407" style="stroke:rgb(0,0,0);stroke-width:1;stroke-linecap:round"/>
<line x1="329" y1="381" x2="339" y2="381" style="stroke:rgb(0,0,0);stroke-width:1;stroke-linecap:round"/>
<path d="M295 371 L318 371 L324 377 L324 385 L318 391 L295 391 L289 385 L289 377 Z" style="fill:rgb(255,255,255);stroke:rgb(0,0,0);stroke-width:1"/>
<line x1="292" y1="381" x2="321" y2="381" style="stroke:rgb(0,0,0);stroke-width:1"/>
<ellipse cx="301" cy="381" rx="2" ry="2" style="rgb(0,0,0)"/>
<ellipse cx="306" cy="381" rx="2" ry="2" style="rgb(0,0,0)"/>
<ellipse cx="311" cy="381" rx="2" ry="2" style="rgb(0,0,0)"/>
<rect x="319" y="376" width="10" height="10" style="fill:rgb(255,255,255);stroke:rgb(0,0,0);stroke-width:1"/>
<line x1="321" y1="381" x2="327" y2="381" style="stroke:rgb(0,0,0);stroke-width:1"/>

<line x1="269" y1="380" x2="289" y2="380" style="stroke:rgb(0,0,0);stroke-width:1;stroke-linecap:round"/>
<rect x="160" y="369" width="104" height="23" style="fill:rgb(255,255,255);stroke:rgb(0,0,0);stroke-width:1"/>
<text x="212" y="380.5" style="font-family:Arimo;font-size:8pt;fill:rgb(0,0,0);font-weight:bold;text-anchor:middle;dominant-baseline:central">IndiceContenido</text>
<rect x="259" y="375" width="10" height="10" style="fill:rgb(255,255,255);stroke:rgb(0,0,0);stroke-width:1"/>
<line x1="261" y1="380" x2="267" y2="380" style="stroke:rgb(0,0,0);stroke-width:1"/>

<rect x="436" y="767" width="69" height="23" style="fill:rgb(255,255,255);stroke:rgb(0,0,0);stroke-width:1"/>
<text x="470.5" y="778.5" style="font-family:Arimo;font-size:8pt;fill:rgb(0,0,0);font-weight:bold;text-anchor:middle;dominant-baseline:central">TipoFirma</text>
<line x1="438" y1="769" x2="446" y2="769" style="stroke:rgb(0,0,0);stroke-width:1"/>
<line x1="438" y1="771" x2="444" y2="771" style="stroke:rgb(0,0,0);stroke-width:1"/>
<line x1="438" y1="773" x2="444" y2="773" style="stroke:rgb(0,0,0);stroke-width:1"/>
<line x1="438" y1="775" x2="444" y2="775" style="stroke:rgb(0,0,0);stroke-width:1"/>

<rect x="754" y="820" width="67" height="23" style="fill:rgb(255,255,255);stroke:rgb(0,0,0);stroke-width:1"/>
<text x="787.5" y="831.5" style="font-family:Arimo;font-size:8pt;fill:rgb(0,0,0);font-weight:bold;text-anchor:middle;dominant-baseline:central">ValorCSV</text>
<line x1="756" y1="822" x2="764" y2="822" style="stroke:rgb(0,0,0);stroke-width:1"/>
<line x1="756" y1="824" x2="762" y2="824" style="stroke:rgb(0,0,0);stroke-width:1"/>
<line x1="756" y1="826" x2="762" y2="826" style="stroke:rgb(0,0,0);stroke-width:1"/>
<line x1="756" y1="828" x2="762" y2="828" style="stroke:rgb(0,0,0);stroke-width:1"/>

<rect x="754" y="873" width="153" height="23" style="fill:rgb(255,255,255);stroke:rgb(0,0,0);stroke-width:1"/>
<text x="830.5" y="884.5" style="font-family:Arimo;font-size:8pt;fill:rgb(0,0,0);font-weight:bold;text-anchor:middle;dominant-baseline:central">RegulacionGeneracionCSV</text>
<line x1="756" y1="875" x2="764" y2="875" style="stroke:rgb(0,0,0);stroke-width:1"/>
<line x1="756" y1="877" x2="762" y2="877" style="stroke:rgb(0,0,0);stroke-width:1"/>
<line x1="756" y1="879" x2="762" y2="879" style="stroke:rgb(0,0,0);stroke-width:1"/>
<line x1="756" y1="881" x2="762" y2="881" style="stroke:rgb(0,0,0);stroke-width:1"/>

<line x1="744" y1="831" x2="754" y2="831" style="stroke:rgb(0,0,0);stroke-width:1;stroke-linecap:round"/>
<line x1="744" y1="884" x2="754" y2="884" style="stroke:rgb(0,0,0);stroke-width:1;stroke-linecap:round"/>
<line x1="744" y1="831" x2="744" y2="884" style="stroke:rgb(0,0,0);stroke-width:1;stroke-linecap:round"/>
<line x1="734" y1="858" x2="744" y2="858" style="stroke:rgb(0,0,0);stroke-width:1;stroke-linecap:round"/>
<path d="M700 848 L723 848 L729 854 L729 862 L723 868 L700 868 L694 862 L694 854 Z" style="fill:rgb(255,255,255);stroke:rgb(0,0,0);stroke-width:1"/>
<line x1="697" y1="858" x2="726" y2="858" style="stroke:rgb(0,0,0);stroke-width:1"/>
<ellipse cx="706" cy="858" rx="2" ry="2" style="rgb(0,0,0)"/>
<ellipse cx="711" cy="858" rx="2" ry="2" style="rgb(0,0,0)"/>
<ellipse cx="716" cy="858" rx="2" ry="2" style="rgb(0,0,0)"/>
<rect x="724" y="853" width="10" height="10" style="fill:rgb(255,255,255);stroke:rgb(0,0,0);stroke-width:1"/>
<line x1="726" y1="858" x2="732" y2="858" style="stroke:rgb(0,0,0);stroke-width:1"/>

<line x1="674" y1="857" x2="694" y2="857" style="stroke:rgb(0,0,0);stroke-width:1;stroke-linecap:round"/>
<rect x="623" y="846" width="46" height="23" style="fill:rgb(255,255,255);stroke:rgb(0,0,0);stroke-width:1"/>
<text x="646" y="857.5" style="font-family:Arimo;font-size:8pt;fill:rgb(0,0,0);font-weight:bold;text-anchor:middle;dominant-baseline:central">CSV</text>
<rect x="664" y="852" width="10" height="10" style="fill:rgb(255,255,255);stroke:rgb(0,0,0);stroke-width:1"/>
<line x1="666" y1="857" x2="672" y2="857" style="stroke:rgb(0,0,0);stroke-width:1"/>

<rect x="833" y="926" width="85" height="23" style="fill:rgb(255,255,255);stroke:rgb(0,0,0);stroke-width:1"/>
<text x="875.5" y="937.5" style="font-family:Arimo;font-size:8pt;fill:rgb(0,0,0);font-weight:bold;text-anchor:middle;dominant-baseline:central">FirmaBase64</text>
<line x1="835" y1="928" x2="843" y2="928" style="stroke:rgb(0,0,0);stroke-width:1"/>
<line x1="835" y1="930" x2="841" y2="930" style="stroke:rgb(0,0,0);stroke-width:1"/>
<line x1="835" y1="932" x2="841" y2="932" style="stroke:rgb(0,0,0);stroke-width:1"/>
<line x1="835" y1="934" x2="841" y2="934" style="stroke:rgb(0,0,0);stroke-width:1"/>

<rect x="833" y="979" width="67" height="23" style="fill:rgb(255,255,255);stroke:rgb(0,0,0);stroke-width:1"/>
<text x="866.5" y="990.5" style="font-family:Arimo;font-size:8pt;fill:rgb(0,0,0);font-weight:bold;text-anchor:middle;dominant-baseline:central">Signature</text>
<line x1="835" y1="981" x2="843" y2="981" style="stroke:rgb(0,0,0);stroke-width:1"/>
<line x1="835" y1="983" x2="841" y2="983" style="stroke:rgb(0,0,0);stroke-width:1"/>
<line x1="835" y1="985" x2="841" y2="985" style="stroke:rgb(0,0,0);stroke-width:1"/>
<line x1="835" y1="987" x2="841" y2="987" style="stroke:rgb(0,0,0);stroke-width:1"/>
<line x1="834" y1="1001" x2="837" y2="998" style="stroke:rgb(0,0,0);stroke-width:2"/>
<path d="M837 998 L839 1000 L840 995 L835 996 L837 998 Z" style="fill:rgb(0,0,0)"/>

<rect x="833" y="1032" width="101" height="23" style="fill:rgb(255,255,255);stroke:rgb(0,0,0);stroke-width:1"/>
<text x="883.5" y="1043.5" style="font-family:Arimo;font-size:8pt;fill:rgb(0,0,0);font-weight:bold;text-anchor:middle;dominant-baseline:central">ReferenciaFirma</text>
<line x1="835" y1="1034" x2="843" y2="1034" style="stroke:rgb(0,0,0);stroke-width:1"/>
<line x1="835" y1="1036" x2="841" y2="1036" style="stroke:rgb(0,0,0);stroke-width:1"/>
<line x1="835" y1="1038" x2="841" y2="1038" style="stroke:rgb(0,0,0);stroke-width:1"/>
<line x1="835" y1="1040" x2="841" y2="1040" style="stroke:rgb(0,0,0);stroke-width:1"/>

<line x1="823" y1="937" x2="833" y2="937" style="stroke:rgb(0,0,0);stroke-width:1;stroke-linecap:round"/>
<line x1="823" y1="990" x2="833" y2="990" style="stroke:rgb(0,0,0);stroke-width:1;stroke-linecap:round"/>
<line x1="823" y1="1043" x2="833" y2="1043" style="stroke:rgb(0,0,0);stroke-width:1;stroke-linecap:round"/>
<line x1="823" y1="937" x2="823" y2="1043" style="stroke:rgb(0,0,0);stroke-width:1;stroke-linecap:round"/>
<line x1="813" y1="990" x2="823" y2="990" style="stroke:rgb(0,0,0);stroke-width:1;stroke-linecap:round"/>
<path d="M779 980 L802 980 L808 986 L808 994 L802 1000 L779 1000 L773 994 L773 986 Z" style="fill:rgb(255,255,255);stroke:rgb(0,0,0);stroke-width:1"/>
<line x1="778" y1="990" x2="782" y2="990" style="stroke:rgb(0,0,0);stroke-width:1"/>
<line x1="782" y1="990" x2="786" y2="986" style="stroke:rgb(0,0,0);stroke-width:1"/>
<line x1="794" y1="986" x2="798" y2="986" style="stroke:rgb(0,0,0);stroke-width:1"/>
<line x1="794" y1="990" x2="802" y2="990" style="stroke:rgb(0,0,0);stroke-width:1"/>
<line x1="794" y1="994" x2="798" y2="994" style="stroke:rgb(0,0,0);stroke-width:1"/>
<line x1="798" y1="986" x2="798" y2="994" style="stroke:rgb(0,0,0);stroke-width:1"/>
<ellipse cx="790" cy="986" rx="2" ry="2" style="rgb(0,0,0)"/>
<ellipse cx="790" cy="990" rx="2" ry="2" style="rgb(0,0,0)"/>
<ellipse cx="790" cy="994" rx="2" ry="2" style="rgb(0,0,0)"/>
<rect x="803" y="985" width="10" height="10" style="fill:rgb(255,255,255);stroke:rgb(0,0,0);stroke-width:1"/>
<line x1="805" y1="990" x2="811" y2="990" style="stroke:rgb(0,0,0);stroke-width:1"/>

<line x1="753" y1="990" x2="773" y2="990" style="stroke:rgb(0,0,0);stroke-width:1;stroke-linecap:round"/>
<rect x="623" y="979" width="125" height="23" style="fill:rgb(255,255,255);stroke:rgb(0,0,0);stroke-width:1"/>
<text x="685.5" y="990.5" style="font-family:Arimo;font-size:8pt;fill:rgb(0,0,0);font-weight:bold;text-anchor:middle;dominant-baseline:central">FirmaConCertificado</text>
<rect x="743" y="985" width="10" height="10" style="fill:rgb(255,255,255);stroke:rgb(0,0,0);stroke-width:1"/>
<line x1="745" y1="990" x2="751" y2="990" style="stroke:rgb(0,0,0);stroke-width:1"/>

<line x1="613" y1="857" x2="623" y2="857" style="stroke:rgb(0,0,0);stroke-width:1;stroke-linecap:round"/>
<line x1="613" y1="990" x2="623" y2="990" style="stroke:rgb(0,0,0);stroke-width:1;stroke-linecap:round"/>
<line x1="613" y1="857" x2="613" y2="990" style="stroke:rgb(0,0,0);stroke-width:1;stroke-linecap:round"/>
<line x1="603" y1="937" x2="613" y2="937" style="stroke:rgb(0,0,0);stroke-width:1;stroke-linecap:round"/>
<path d="M569 927 L592 927 L598 933 L598 941 L592 947 L569 947 L563 941 L563 933 Z" style="fill:rgb(255,255,255);stroke:rgb(0,0,0);stroke-width:1"/>
<line x1="568" y1="937" x2="572" y2="937" style="stroke:rgb(0,0,0);stroke-width:1"/>
<line x1="572" y1="937" x2="576" y2="933" style="stroke:rgb(0,0,0);stroke-width:1"/>
<line x1="584" y1="933" x2="588" y2="933" style="stroke:rgb(0,0,0);stroke-width:1"/>
<line x1="584" y1="937" x2="592" y2="937" style="stroke:rgb(0,0,0);stroke-width:1"/>
<line x1="584" y1="941" x2="588" y2="941" style="stroke:rgb(0,0,0);stroke-width:1"/>
<line x1="588" y1="933" x2="588" y2="941" style="stroke:rgb(0,0,0);stroke-width:1"/>
<ellipse cx="580" cy="933" rx="2" ry="2" style="rgb(0,0,0)"/>
<ellipse cx="580" cy="937" rx="2" ry="2" style="rgb(0,0,0)"/>
<ellipse cx="580" cy="941" rx="2" ry="2" style="rgb(0,0,0)"/>
<rect x="593" y="932" width="10" height="10" style="fill:rgb(255,255,255);stroke:rgb(0,0,0);stroke-width:1"/>
<line x1="595" y1="937" x2="601" y2="937" style="stroke:rgb(0,0,0);stroke-width:1"/>

<line x1="543" y1="937" x2="563" y2="937" style="stroke:rgb(0,0,0);stroke-width:1;stroke-linecap:round"/>
<rect x="436" y="926" width="102" height="23" style="fill:rgb(255,255,255);stroke:rgb(0,0,0);stroke-width:1"/>
<text x="487" y="937.5" style="font-family:Arimo;font-size:8pt;fill:rgb(0,0,0);font-weight:bold;text-anchor:middle;dominant-baseline:central">ContenidoFirma</text>
<rect x="533" y="932" width="10" height="10" style="fill:rgb(255,255,255);stroke:rgb(0,0,0);stroke-width:1"/>
<line x1="535" y1="937" x2="541" y2="937" style="stroke:rgb(0,0,0);stroke-width:1"/>

<line x1="426" y1="778" x2="436" y2="778" style="stroke:rgb(0,0,0);stroke-width:1;stroke-linecap:round"/>
<line x1="426" y1="937" x2="436" y2="937" style="stroke:rgb(0,0,0);stroke-width:1;stroke-linecap:round"/>
<line x1="426" y1="778" x2="426" y2="937" style="stroke:rgb(0,0,0);stroke-width:1;stroke-linecap:round"/>
<line x1="416" y1="911" x2="426" y2="911" style="stroke:rgb(0,0,0);stroke-width:1;stroke-linecap:round"/>
<path d="M382 901 L405 901 L411 907 L411 915 L405 921 L382 921 L376 915 L376 907 Z" style="fill:rgb(255,255,255);stroke:rgb(0,0,0);stroke-width:1"/>
<line x1="379" y1="911" x2="408" y2="911" style="stroke:rgb(0,0,0);stroke-width:1"/>
<ellipse cx="388" cy="911" rx="2" ry="2" style="rgb(0,0,0)"/>
<ellipse cx="393" cy="911" rx="2" ry="2" style="rgb(0,0,0)"/>
<ellipse cx="398" cy="911" rx="2" ry="2" style="rgb(0,0,0)"/>
<rect x="406" y="906" width="10" height="10" style="fill:rgb(255,255,255);stroke:rgb(0,0,0);stroke-width:1"/>
<line x1="408" y1="911" x2="414" y2="911" style="stroke:rgb(0,0,0);stroke-width:1"/>

<line x1="356" y1="910" x2="376" y2="910" style="stroke:rgb(0,0,0);stroke-width:1;stroke-linecap:round"/>
<rect x="304" y="902" width="50" height="23" style="fill:rgb(255,255,255);stroke:rgb(0,0,0);stroke-width:1"/>
<rect x="301" y="899" width="50" height="23" style="fill:rgb(255,255,255);stroke:rgb(0,0,0);stroke-width:1"/>
<text x="326" y="910.5" style="font-family:Arimo;font-size:8pt;fill:rgb(0,0,0);font-weight:bold;text-anchor:middle;dominant-baseline:central">firma</text>
<text x="346" y="932" style="font-family:Arimo;font-size:7.2pt;fill:rgb(0,0,0);text-anchor:end;dominant-baseline:central">1..∞</text>
<rect x="346" y="905" width="10" height="10" style="fill:rgb(255,255,255);stroke:rgb(0,0,0);stroke-width:1"/>
<line x1="348" y1="910" x2="354" y2="910" style="stroke:rgb(0,0,0);stroke-width:1"/>

<line x1="281" y1="911" x2="301" y2="911" style="stroke:rgb(0,0,0);stroke-width:1;stroke-linecap:round"/>
<path d="M247 901 L270 901 L276 907 L276 915 L270 921 L247 921 L241 915 L241 907 Z" style="fill:rgb(255,255,255);stroke:rgb(0,0,0);stroke-width:1"/>
<line x1="244" y1="911" x2="273" y2="911" style="stroke:rgb(0,0,0);stroke-width:1"/>
<ellipse cx="253" cy="911" rx="2" ry="2" style="rgb(0,0,0)"/>
<ellipse cx="258" cy="911" rx="2" ry="2" style="rgb(0,0,0)"/>
<ellipse cx="263" cy="911" rx="2" ry="2" style="rgb(0,0,0)"/>
<rect x="271" y="906" width="10" height="10" style="fill:rgb(255,255,255);stroke:rgb(0,0,0);stroke-width:1"/>
<line x1="273" y1="911" x2="279" y2="911" style="stroke:rgb(0,0,0);stroke-width:1"/>

<line x1="221" y1="910" x2="241" y2="910" style="stroke:rgb(0,0,0);stroke-width:1;stroke-linecap:round"/>
<rect x="160" y="899" width="56" height="23" style="fill:rgb(255,255,255);stroke:rgb(0,0,0);stroke-width:1"/>
<text x="188" y="910.5" style="font-family:Arimo;font-size:8pt;fill:rgb(0,0,0);font-weight:bold;text-anchor:middle;dominant-baseline:central">firmas</text>
<line x1="161" y1="921" x2="164" y2="918" style="stroke:rgb(0,0,0);stroke-width:2"/>
<path d="M164 918 L166 920 L167 915 L162 916 L164 918 Z" style="fill:rgb(0,0,0)"/>
<rect x="211" y="905" width="10" height="10" style="fill:rgb(255,255,255);stroke:rgb(0,0,0);stroke-width:1"/>
<line x1="213" y1="910" x2="219" y2="910" style="stroke:rgb(0,0,0);stroke-width:1"/>

<line x1="150" y1="380" x2="160" y2="380" style="stroke:rgb(0,0,0);stroke-width:1;stroke-linecap:round"/>
<line x1="150" y1="910" x2="160" y2="910" style="stroke:rgb(0,0,0);stroke-width:1;stroke-linecap:round"/>
<line x1="150" y1="380" x2="150" y2="910" style="stroke:rgb(0,0,0);stroke-width:1;stroke-linecap:round"/>
<line x1="140" y1="540" x2="150" y2="540" style="stroke:rgb(0,0,0);stroke-width:1;stroke-linecap:round"/>
<path d="M106 530 L129 530 L135 536 L135 544 L129 550 L106 550 L100 544 L100 536 Z" style="fill:rgb(255,255,255);stroke:rgb(0,0,0);stroke-width:1"/>
<line x1="103" y1="540" x2="132" y2="540" style="stroke:rgb(0,0,0);stroke-width:1"/>
<ellipse cx="112" cy="540" rx="2" ry="2" style="rgb(0,0,0)"/>
<ellipse cx="117" cy="540" rx="2" ry="2" style="rgb(0,0,0)"/>
<ellipse cx="122" cy="540" rx="2" ry="2" style="rgb(0,0,0)"/>
<rect x="130" y="535" width="10" height="10" style="fill:rgb(255,255,255);stroke:rgb(0,0,0);stroke-width:1"/>
<line x1="132" y1="540" x2="138" y2="540" style="stroke:rgb(0,0,0);stroke-width:1"/>

<line x1="80" y1="539" x2="100" y2="539" style="stroke:rgb(0,0,0);stroke-width:1;stroke-linecap:round"/>
<rect x="20" y="528" width="55" height="23" style="fill:rgb(255,255,255);stroke:rgb(0,0,0);stroke-width:1"/>
<text x="47.5" y="539.5" style="font-family:Arimo;font-size:8pt;fill:rgb(0,0,0);font-weight:bold;text-anchor:middle;dominant-baseline:central">indice</text>
<rect x="70" y="534" width="10" height="10" style="fill:rgb(255,255,255);stroke:rgb(0,0,0);stroke-width:1"/>
<line x1="72" y1="539" x2="78" y2="539" style="stroke:rgb(0,0,0);stroke-width:1"/>
</svg>
