<?xml version="1.0" standalone="no"?>
<!DOCTYPE svg PUBLIC "-//W3C//DTD SVG 1.1//EN" "http://www.w3.org/Graphics/SVG/1.1/DTD/svg11.dtd">
<svg width="100%" height="100%" version="1.1" xmlns="http://www.w3.org/2000/svg">
<rect x="296" y="25" width="69" height="23" style="fill:rgb(255,255,255);stroke:rgb(0,0,0);stroke-width:1"/>
<text x="330.5" y="36.5" style="font-family:Arimo;font-size:8pt;fill:rgb(0,0,0);font-weight:bold;text-anchor:middle;dominant-baseline:central">TipoFirma</text>
<line x1="298" y1="27" x2="306" y2="27" style="stroke:rgb(0,0,0);stroke-width:1"/>
<line x1="298" y1="29" x2="304" y2="29" style="stroke:rgb(0,0,0);stroke-width:1"/>
<line x1="298" y1="31" x2="304" y2="31" style="stroke:rgb(0,0,0);stroke-width:1"/>
<line x1="298" y1="33" x2="304" y2="33" style="stroke:rgb(0,0,0);stroke-width:1"/>

<rect x="614" y="78" width="67" height="23" style="fill:rgb(255,255,255);stroke:rgb(0,0,0);stroke-width:1"/>
<text x="647.5" y="89.5" style="font-family:Arimo;font-size:8pt;fill:rgb(0,0,0);font-weight:bold;text-anchor:middle;dominant-baseline:central">ValorCSV</text>
<line x1="616" y1="80" x2="624" y2="80" style="stroke:rgb(0,0,0);stroke-width:1"/>
<line x1="616" y1="82" x2="622" y2="82" style="stroke:rgb(0,0,0);stroke-width:1"/>
<line x1="616" y1="84" x2="622" y2="84" style="stroke:rgb(0,0,0);stroke-width:1"/>
<line x1="616" y1="86" x2="622" y2="86" style="stroke:rgb(0,0,0);stroke-width:1"/>

<rect x="614" y="131" width="153" height="23" style="fill:rgb(255,255,255);stroke:rgb(0,0,0);stroke-width:1"/>
<text x="690.5" y="142.5" style="font-family:Arimo;font-size:8pt;fill:rgb(0,0,0);font-weight:bold;text-anchor:middle;dominant-baseline:central">RegulacionGeneracionCSV</text>
<line x1="616" y1="133" x2="624" y2="133" style="stroke:rgb(0,0,0);stroke-width:1"/>
<line x1="616" y1="135" x2="622" y2="135" style="stroke:rgb(0,0,0);stroke-width:1"/>
<line x1="616" y1="137" x2="622" y2="137" style="stroke:rgb(0,0,0);stroke-width:1"/>
<line x1="616" y1="139" x2="622" y2="139" style="stroke:rgb(0,0,0);stroke-width:1"/>

<line x1="604" y1="89" x2="614" y2="89" style="stroke:rgb(0,0,0);stroke-width:1;stroke-linecap:round"/>
<line x1="604" y1="142" x2="614" y2="142" style="stroke:rgb(0,0,0);stroke-width:1;stroke-linecap:round"/>
<line x1="604" y1="89" x2="604" y2="142" style="stroke:rgb(0,0,0);stroke-width:1;stroke-linecap:round"/>
<line x1="594" y1="116" x2="604" y2="116" style="stroke:rgb(0,0,0);stroke-width:1;stroke-linecap:round"/>
<path d="M560 106 L583 106 L589 112 L589 120 L583 126 L560 126 L554 120 L554 112 Z" style="fill:rgb(255,255,255);stroke:rgb(0,0,0);stroke-width:1"/>
<line x1="557" y1="116" x2="586" y2="116" style="stroke:rgb(0,0,0);stroke-width:1"/>
<ellipse cx="566" cy="116" rx="2" ry="2" style="rgb(0,0,0)"/>
<ellipse cx="571" cy="116" rx="2" ry="2" style="rgb(0,0,0)"/>
<ellipse cx="576" cy="116" rx="2" ry="2" style="rgb(0,0,0)"/>
<rect x="584" y="111" width="10" height="10" style="fill:rgb(255,255,255);stroke:rgb(0,0,0);stroke-width:1"/>
<line x1="586" y1="116" x2="592" y2="116" style="stroke:rgb(0,0,0);stroke-width:1"/>

<line x1="534" y1="115" x2="554" y2="115" style="stroke:rgb(0,0,0);stroke-width:1;stroke-linecap:round"/>
<rect x="483" y="104" width="46" height="23" style="fill:rgb(255,255,255);stroke:rgb(0,0,0);stroke-width:1"/>
<text x="506" y="115.5" style="font-family:Arimo;font-size:8pt;fill:rgb(0,0,0);font-weight:bold;text-anchor:middle;dominant-baseline:central">CSV</text>
<rect x="524" y="110" width="10" height="10" style="fill:rgb(255,255,255);stroke:rgb(0,0,0);stroke-width:1"/>
<line x1="526" y1="115" x2="532" y2="115" style="stroke:rgb(0,0,0);stroke-width:1"/>

<rect x="693" y="184" width="85" height="23" style="fill:rgb(255,255,255);stroke:rgb(0,0,0);stroke-width:1"/>
<text x="735.5" y="195.5" style="font-family:Arimo;font-size:8pt;fill:rgb(0,0,0);font-weight:bold;text-anchor:middle;dominant-baseline:central">FirmaBase64</text>
<line x1="695" y1="186" x2="703" y2="186" style="stroke:rgb(0,0,0);stroke-width:1"/>
<line x1="695" y1="188" x2="701" y2="188" style="stroke:rgb(0,0,0);stroke-width:1"/>
<line x1="695" y1="190" x2="701" y2="190" style="stroke:rgb(0,0,0);stroke-width:1"/>
<line x1="695" y1="192" x2="701" y2="192" style="stroke:rgb(0,0,0);stroke-width:1"/>

<rect x="693" y="237" width="67" height="23" style="fill:rgb(255,255,255);stroke:rgb(0,0,0);stroke-width:1"/>
<text x="726.5" y="248.5" style="font-family:Arimo;font-size:8pt;fill:rgb(0,0,0);font-weight:bold;text-anchor:middle;dominant-baseline:central">Signature</text>
<line x1="695" y1="239" x2="703" y2="239" style="stroke:rgb(0,0,0);stroke-width:1"/>
<line x1="695" y1="241" x2="701" y2="241" style="stroke:rgb(0,0,0);stroke-width:1"/>
<line x1="695" y1="243" x2="701" y2="243" style="stroke:rgb(0,0,0);stroke-width:1"/>
<line x1="695" y1="245" x2="701" y2="245" style="stroke:rgb(0,0,0);stroke-width:1"/>
<line x1="694" y1="259" x2="697" y2="256" style="stroke:rgb(0,0,0);stroke-width:2"/>
<path d="M697 256 L699 258 L700 253 L695 254 L697 256 Z" style="fill:rgb(0,0,0)"/>

<rect x="693" y="290" width="101" height="23" style="fill:rgb(255,255,255);stroke:rgb(0,0,0);stroke-width:1"/>
<text x="743.5" y="301.5" style="font-family:Arimo;font-size:8pt;fill:rgb(0,0,0);font-weight:bold;text-anchor:middle;dominant-baseline:central">ReferenciaFirma</text>
<line x1="695" y1="292" x2="703" y2="292" style="stroke:rgb(0,0,0);stroke-width:1"/>
<line x1="695" y1="294" x2="701" y2="294" style="stroke:rgb(0,0,0);stroke-width:1"/>
<line x1="695" y1="296" x2="701" y2="296" style="stroke:rgb(0,0,0);stroke-width:1"/>
<line x1="695" y1="298" x2="701" y2="298" style="stroke:rgb(0,0,0);stroke-width:1"/>

<line x1="683" y1="195" x2="693" y2="195" style="stroke:rgb(0,0,0);stroke-width:1;stroke-linecap:round"/>
<line x1="683" y1="248" x2="693" y2="248" style="stroke:rgb(0,0,0);stroke-width:1;stroke-linecap:round"/>
<line x1="683" y1="301" x2="693" y2="301" style="stroke:rgb(0,0,0);stroke-width:1;stroke-linecap:round"/>
<line x1="683" y1="195" x2="683" y2="301" style="stroke:rgb(0,0,0);stroke-width:1;stroke-linecap:round"/>
<line x1="673" y1="248" x2="683" y2="248" style="stroke:rgb(0,0,0);stroke-width:1;stroke-linecap:round"/>
<path d="M639 238 L662 238 L668 244 L668 252 L662 258 L639 258 L633 252 L633 244 Z" style="fill:rgb(255,255,255);stroke:rgb(0,0,0);stroke-width:1"/>
<line x1="638" y1="248" x2="642" y2="248" style="stroke:rgb(0,0,0);stroke-width:1"/>
<line x1="642" y1="248" x2="646" y2="244" style="stroke:rgb(0,0,0);stroke-width:1"/>
<line x1="654" y1="244" x2="658" y2="244" style="stroke:rgb(0,0,0);stroke-width:1"/>
<line x1="654" y1="248" x2="662" y2="248" style="stroke:rgb(0,0,0);stroke-width:1"/>
<line x1="654" y1="252" x2="658" y2="252" style="stroke:rgb(0,0,0);stroke-width:1"/>
<line x1="658" y1="244" x2="658" y2="252" style="stroke:rgb(0,0,0);stroke-width:1"/>
<ellipse cx="650" cy="244" rx="2" ry="2" style="rgb(0,0,0)"/>
<ellipse cx="650" cy="248" rx="2" ry="2" style="rgb(0,0,0)"/>
<ellipse cx="650" cy="252" rx="2" ry="2" style="rgb(0,0,0)"/>
<rect x="663" y="243" width="10" height="10" style="fill:rgb(255,255,255);stroke:rgb(0,0,0);stroke-width:1"/>
<line x1="665" y1="248" x2="671" y2="248" style="stroke:rgb(0,0,0);stroke-width:1"/>

<line x1="613" y1="248" x2="633" y2="248" style="stroke:rgb(0,0,0);stroke-width:1;stroke-linecap:round"/>
<rect x="483" y="237" width="125" height="23" style="fill:rgb(255,255,255);stroke:rgb(0,0,0);stroke-width:1"/>
<text x="545.5" y="248.5" style="font-family:Arimo;font-size:8pt;fill:rgb(0,0,0);font-weight:bold;text-anchor:middle;dominant-baseline:central">FirmaConCertificado</text>
<rect x="603" y="243" width="10" height="10" style="fill:rgb(255,255,255);stroke:rgb(0,0,0);stroke-width:1"/>
<line x1="605" y1="248" x2="611" y2="248" style="stroke:rgb(0,0,0);stroke-width:1"/>

<line x1="473" y1="115" x2="483" y2="115" style="stroke:rgb(0,0,0);stroke-width:1;stroke-linecap:round"/>
<line x1="473" y1="248" x2="483" y2="248" style="stroke:rgb(0,0,0);stroke-width:1;stroke-linecap:round"/>
<line x1="473" y1="115" x2="473" y2="248" style="stroke:rgb(0,0,0);stroke-width:1;stroke-linecap:round"/>
<line x1="463" y1="195" x2="473" y2="195" style="stroke:rgb(0,0,0);stroke-width:1;stroke-linecap:round"/>
<path d="M429 185 L452 185 L458 191 L458 199 L452 205 L429 205 L423 199 L423 191 Z" style="fill:rgb(255,255,255);stroke:rgb(0,0,0);stroke-width:1"/>
<line x1="428" y1="195" x2="432" y2="195" style="stroke:rgb(0,0,0);stroke-width:1"/>
<line x1="432" y1="195" x2="436" y2="191" style="stroke:rgb(0,0,0);stroke-width:1"/>
<line x1="444" y1="191" x2="448" y2="191" style="stroke:rgb(0,0,0);stroke-width:1"/>
<line x1="444" y1="195" x2="452" y2="195" style="stroke:rgb(0,0,0);stroke-width:1"/>
<line x1="444" y1="199" x2="448" y2="199" style="stroke:rgb(0,0,0);stroke-width:1"/>
<line x1="448" y1="191" x2="448" y2="199" style="stroke:rgb(0,0,0);stroke-width:1"/>
<ellipse cx="440" cy="191" rx="2" ry="2" style="rgb(0,0,0)"/>
<ellipse cx="440" cy="195" rx="2" ry="2" style="rgb(0,0,0)"/>
<ellipse cx="440" cy="199" rx="2" ry="2" style="rgb(0,0,0)"/>
<rect x="453" y="190" width="10" height="10" style="fill:rgb(255,255,255);stroke:rgb(0,0,0);stroke-width:1"/>
<line x1="455" y1="195" x2="461" y2="195" style="stroke:rgb(0,0,0);stroke-width:1"/>

<line x1="403" y1="195" x2="423" y2="195" style="stroke:rgb(0,0,0);stroke-width:1;stroke-linecap:round"/>
<rect x="296" y="184" width="102" height="23" style="fill:rgb(255,255,255);stroke:rgb(0,0,0);stroke-width:1"/>
<text x="347" y="195.5" style="font-family:Arimo;font-size:8pt;fill:rgb(0,0,0);font-weight:bold;text-anchor:middle;dominant-baseline:central">ContenidoFirma</text>
<rect x="393" y="190" width="10" height="10" style="fill:rgb(255,255,255);stroke:rgb(0,0,0);stroke-width:1"/>
<line x1="395" y1="195" x2="401" y2="195" style="stroke:rgb(0,0,0);stroke-width:1"/>

<line x1="286" y1="36" x2="296" y2="36" style="stroke:rgb(0,0,0);stroke-width:1;stroke-linecap:round"/>
<line x1="286" y1="195" x2="296" y2="195" style="stroke:rgb(0,0,0);stroke-width:1;stroke-linecap:round"/>
<line x1="286" y1="36" x2="286" y2="195" style="stroke:rgb(0,0,0);stroke-width:1;stroke-linecap:round"/>
<line x1="276" y1="169" x2="286" y2="169" style="stroke:rgb(0,0,0);stroke-width:1;stroke-linecap:round"/>
<path d="M242 159 L265 159 L271 165 L271 173 L265 179 L242 179 L236 173 L236 165 Z" style="fill:rgb(255,255,255);stroke:rgb(0,0,0);stroke-width:1"/>
<line x1="239" y1="169" x2="268" y2="169" style="stroke:rgb(0,0,0);stroke-width:1"/>
<ellipse cx="248" cy="169" rx="2" ry="2" style="rgb(0,0,0)"/>
<ellipse cx="253" cy="169" rx="2" ry="2" style="rgb(0,0,0)"/>
<ellipse cx="258" cy="169" rx="2" ry="2" style="rgb(0,0,0)"/>
<rect x="266" y="164" width="10" height="10" style="fill:rgb(255,255,255);stroke:rgb(0,0,0);stroke-width:1"/>
<line x1="268" y1="169" x2="274" y2="169" style="stroke:rgb(0,0,0);stroke-width:1"/>

<line x1="216" y1="168" x2="236" y2="168" style="stroke:rgb(0,0,0);stroke-width:1;stroke-linecap:round"/>
<rect x="164" y="160" width="50" height="23" style="fill:rgb(255,255,255);stroke:rgb(0,0,0);stroke-width:1"/>
<rect x="161" y="157" width="50" height="23" style="fill:rgb(255,255,255);stroke:rgb(0,0,0);stroke-width:1"/>
<text x="186" y="168.5" style="font-family:Arimo;font-size:8pt;fill:rgb(0,0,0);font-weight:bold;text-anchor:middle;dominant-baseline:central">firma</text>
<text x="206" y="190" style="font-family:Arimo;font-size:7.2pt;fill:rgb(0,0,0);text-anchor:end;dominant-baseline:central">1..∞</text>
<rect x="206" y="163" width="10" height="10" style="fill:rgb(255,255,255);stroke:rgb(0,0,0);stroke-width:1"/>
<line x1="208" y1="168" x2="214" y2="168" style="stroke:rgb(0,0,0);stroke-width:1"/>

<line x1="141" y1="169" x2="161" y2="169" style="stroke:rgb(0,0,0);stroke-width:1;stroke-linecap:round"/>
<path d="M107 159 L130 159 L136 165 L136 173 L130 179 L107 179 L101 173 L101 165 Z" style="fill:rgb(255,255,255);stroke:rgb(0,0,0);stroke-width:1"/>
<line x1="104" y1="169" x2="133" y2="169" style="stroke:rgb(0,0,0);stroke-width:1"/>
<ellipse cx="113" cy="169" rx="2" ry="2" style="rgb(0,0,0)"/>
<ellipse cx="118" cy="169" rx="2" ry="2" style="rgb(0,0,0)"/>
<ellipse cx="123" cy="169" rx="2" ry="2" style="rgb(0,0,0)"/>
<rect x="131" y="164" width="10" height="10" style="fill:rgb(255,255,255);stroke:rgb(0,0,0);stroke-width:1"/>
<line x1="133" y1="169" x2="139" y2="169" style="stroke:rgb(0,0,0);stroke-width:1"/>

<line x1="81" y1="168" x2="101" y2="168" style="stroke:rgb(0,0,0);stroke-width:1;stroke-linecap:round"/>
<rect x="20" y="157" width="56" height="23" style="fill:rgb(255,255,255);stroke:rgb(0,0,0);stroke-width:1"/>
<text x="48" y="168.5" style="font-family:Arimo;font-size:8pt;fill:rgb(0,0,0);font-weight:bold;text-anchor:middle;dominant-baseline:central">firmas</text>
<rect x="71" y="163" width="10" height="10" style="fill:rgb(255,255,255);stroke:rgb(0,0,0);stroke-width:1"/>
<line x1="73" y1="168" x2="79" y2="168" style="stroke:rgb(0,0,0);stroke-width:1"/>
<rect x="296" y="343" width="69" height="23" style="fill:rgb(255,255,255);stroke:rgb(0,0,0);stroke-width:1"/>
<text x="330.5" y="354.5" style="font-family:Arimo;font-size:8pt;fill:rgb(0,0,0);font-weight:bold;text-anchor:middle;dominant-baseline:central">TipoFirma</text>
<line x1="298" y1="345" x2="306" y2="345" style="stroke:rgb(0,0,0);stroke-width:1"/>
<line x1="298" y1="347" x2="304" y2="347" style="stroke:rgb(0,0,0);stroke-width:1"/>
<line x1="298" y1="349" x2="304" y2="349" style="stroke:rgb(0,0,0);stroke-width:1"/>
<line x1="298" y1="351" x2="304" y2="351" style="stroke:rgb(0,0,0);stroke-width:1"/>

<rect x="614" y="396" width="67" height="23" style="fill:rgb(255,255,255);stroke:rgb(0,0,0);stroke-width:1"/>
<text x="647.5" y="407.5" style="font-family:Arimo;font-size:8pt;fill:rgb(0,0,0);font-weight:bold;text-anchor:middle;dominant-baseline:central">ValorCSV</text>
<line x1="616" y1="398" x2="624" y2="398" style="stroke:rgb(0,0,0);stroke-width:1"/>
<line x1="616" y1="400" x2="622" y2="400" style="stroke:rgb(0,0,0);stroke-width:1"/>
<line x1="616" y1="402" x2="622" y2="402" style="stroke:rgb(0,0,0);stroke-width:1"/>
<line x1="616" y1="404" x2="622" y2="404" style="stroke:rgb(0,0,0);stroke-width:1"/>

<rect x="614" y="449" width="153" height="23" style="fill:rgb(255,255,255);stroke:rgb(0,0,0);stroke-width:1"/>
<text x="690.5" y="460.5" style="font-family:Arimo;font-size:8pt;fill:rgb(0,0,0);font-weight:bold;text-anchor:middle;dominant-baseline:central">RegulacionGeneracionCSV</text>
<line x1="616" y1="451" x2="624" y2="451" style="stroke:rgb(0,0,0);stroke-width:1"/>
<line x1="616" y1="453" x2="622" y2="453" style="stroke:rgb(0,0,0);stroke-width:1"/>
<line x1="616" y1="455" x2="622" y2="455" style="stroke:rgb(0,0,0);stroke-width:1"/>
<line x1="616" y1="457" x2="622" y2="457" style="stroke:rgb(0,0,0);stroke-width:1"/>

<line x1="604" y1="407" x2="614" y2="407" style="stroke:rgb(0,0,0);stroke-width:1;stroke-linecap:round"/>
<line x1="604" y1="460" x2="614" y2="460" style="stroke:rgb(0,0,0);stroke-width:1;stroke-linecap:round"/>
<line x1="604" y1="407" x2="604" y2="460" style="stroke:rgb(0,0,0);stroke-width:1;stroke-linecap:round"/>
<line x1="594" y1="434" x2="604" y2="434" style="stroke:rgb(0,0,0);stroke-width:1;stroke-linecap:round"/>
<path d="M560 424 L583 424 L589 430 L589 438 L583 444 L560 444 L554 438 L554 430 Z" style="fill:rgb(255,255,255);stroke:rgb(0,0,0);stroke-width:1"/>
<line x1="557" y1="434" x2="586" y2="434" style="stroke:rgb(0,0,0);stroke-width:1"/>
<ellipse cx="566" cy="434" rx="2" ry="2" style="rgb(0,0,0)"/>
<ellipse cx="571" cy="434" rx="2" ry="2" style="rgb(0,0,0)"/>
<ellipse cx="576" cy="434" rx="2" ry="2" style="rgb(0,0,0)"/>
<rect x="584" y="429" width="10" height="10" style="fill:rgb(255,255,255);stroke:rgb(0,0,0);stroke-width:1"/>
<line x1="586" y1="434" x2="592" y2="434" style="stroke:rgb(0,0,0);stroke-width:1"/>

<line x1="534" y1="433" x2="554" y2="433" style="stroke:rgb(0,0,0);stroke-width:1;stroke-linecap:round"/>
<rect x="483" y="422" width="46" height="23" style="fill:rgb(255,255,255);stroke:rgb(0,0,0);stroke-width:1"/>
<text x="506" y="433.5" style="font-family:Arimo;font-size:8pt;fill:rgb(0,0,0);font-weight:bold;text-anchor:middle;dominant-baseline:central">CSV</text>
<rect x="524" y="428" width="10" height="10" style="fill:rgb(255,255,255);stroke:rgb(0,0,0);stroke-width:1"/>
<line x1="526" y1="433" x2="532" y2="433" style="stroke:rgb(0,0,0);stroke-width:1"/>

<rect x="693" y="502" width="85" height="23" style="fill:rgb(255,255,255);stroke:rgb(0,0,0);stroke-width:1"/>
<text x="735.5" y="513.5" style="font-family:Arimo;font-size:8pt;fill:rgb(0,0,0);font-weight:bold;text-anchor:middle;dominant-baseline:central">FirmaBase64</text>
<line x1="695" y1="504" x2="703" y2="504" style="stroke:rgb(0,0,0);stroke-width:1"/>
<line x1="695" y1="506" x2="701" y2="506" style="stroke:rgb(0,0,0);stroke-width:1"/>
<line x1="695" y1="508" x2="701" y2="508" style="stroke:rgb(0,0,0);stroke-width:1"/>
<line x1="695" y1="510" x2="701" y2="510" style="stroke:rgb(0,0,0);stroke-width:1"/>

<rect x="693" y="555" width="67" height="23" style="fill:rgb(255,255,255);stroke:rgb(0,0,0);stroke-width:1"/>
<text x="726.5" y="566.5" style="font-family:Arimo;font-size:8pt;fill:rgb(0,0,0);font-weight:bold;text-anchor:middle;dominant-baseline:central">Signature</text>
<line x1="695" y1="557" x2="703" y2="557" style="stroke:rgb(0,0,0);stroke-width:1"/>
<line x1="695" y1="559" x2="701" y2="559" style="stroke:rgb(0,0,0);stroke-width:1"/>
<line x1="695" y1="561" x2="701" y2="561" style="stroke:rgb(0,0,0);stroke-width:1"/>
<line x1="695" y1="563" x2="701" y2="563" style="stroke:rgb(0,0,0);stroke-width:1"/>
<line x1="694" y1="577" x2="697" y2="574" style="stroke:rgb(0,0,0);stroke-width:2"/>
<path d="M697 574 L699 576 L700 571 L695 572 L697 574 Z" style="fill:rgb(0,0,0)"/>

<rect x="693" y="608" width="101" height="23" style="fill:rgb(255,255,255);stroke:rgb(0,0,0);stroke-width:1"/>
<text x="743.5" y="619.5" style="font-family:Arimo;font-size:8pt;fill:rgb(0,0,0);font-weight:bold;text-anchor:middle;dominant-baseline:central">ReferenciaFirma</text>
<line x1="695" y1="610" x2="703" y2="610" style="stroke:rgb(0,0,0);stroke-width:1"/>
<line x1="695" y1="612" x2="701" y2="612" style="stroke:rgb(0,0,0);stroke-width:1"/>
<line x1="695" y1="614" x2="701" y2="614" style="stroke:rgb(0,0,0);stroke-width:1"/>
<line x1="695" y1="616" x2="701" y2="616" style="stroke:rgb(0,0,0);stroke-width:1"/>

<line x1="683" y1="513" x2="693" y2="513" style="stroke:rgb(0,0,0);stroke-width:1;stroke-linecap:round"/>
<line x1="683" y1="566" x2="693" y2="566" style="stroke:rgb(0,0,0);stroke-width:1;stroke-linecap:round"/>
<line x1="683" y1="619" x2="693" y2="619" style="stroke:rgb(0,0,0);stroke-width:1;stroke-linecap:round"/>
<line x1="683" y1="513" x2="683" y2="619" style="stroke:rgb(0,0,0);stroke-width:1;stroke-linecap:round"/>
<line x1="673" y1="566" x2="683" y2="566" style="stroke:rgb(0,0,0);stroke-width:1;stroke-linecap:round"/>
<path d="M639 556 L662 556 L668 562 L668 570 L662 576 L639 576 L633 570 L633 562 Z" style="fill:rgb(255,255,255);stroke:rgb(0,0,0);stroke-width:1"/>
<line x1="638" y1="566" x2="642" y2="566" style="stroke:rgb(0,0,0);stroke-width:1"/>
<line x1="642" y1="566" x2="646" y2="562" style="stroke:rgb(0,0,0);stroke-width:1"/>
<line x1="654" y1="562" x2="658" y2="562" style="stroke:rgb(0,0,0);stroke-width:1"/>
<line x1="654" y1="566" x2="662" y2="566" style="stroke:rgb(0,0,0);stroke-width:1"/>
<line x1="654" y1="570" x2="658" y2="570" style="stroke:rgb(0,0,0);stroke-width:1"/>
<line x1="658" y1="562" x2="658" y2="570" style="stroke:rgb(0,0,0);stroke-width:1"/>
<ellipse cx="650" cy="562" rx="2" ry="2" style="rgb(0,0,0)"/>
<ellipse cx="650" cy="566" rx="2" ry="2" style="rgb(0,0,0)"/>
<ellipse cx="650" cy="570" rx="2" ry="2" style="rgb(0,0,0)"/>
<rect x="663" y="561" width="10" height="10" style="fill:rgb(255,255,255);stroke:rgb(0,0,0);stroke-width:1"/>
<line x1="665" y1="566" x2="671" y2="566" style="stroke:rgb(0,0,0);stroke-width:1"/>

<line x1="613" y1="566" x2="633" y2="566" style="stroke:rgb(0,0,0);stroke-width:1;stroke-linecap:round"/>
<rect x="483" y="555" width="125" height="23" style="fill:rgb(255,255,255);stroke:rgb(0,0,0);stroke-width:1"/>
<text x="545.5" y="566.5" style="font-family:Arimo;font-size:8pt;fill:rgb(0,0,0);font-weight:bold;text-anchor:middle;dominant-baseline:central">FirmaConCertificado</text>
<rect x="603" y="561" width="10" height="10" style="fill:rgb(255,255,255);stroke:rgb(0,0,0);stroke-width:1"/>
<line x1="605" y1="566" x2="611" y2="566" style="stroke:rgb(0,0,0);stroke-width:1"/>

<line x1="473" y1="433" x2="483" y2="433" style="stroke:rgb(0,0,0);stroke-width:1;stroke-linecap:round"/>
<line x1="473" y1="566" x2="483" y2="566" style="stroke:rgb(0,0,0);stroke-width:1;stroke-linecap:round"/>
<line x1="473" y1="433" x2="473" y2="566" style="stroke:rgb(0,0,0);stroke-width:1;stroke-linecap:round"/>
<line x1="463" y1="513" x2="473" y2="513" style="stroke:rgb(0,0,0);stroke-width:1;stroke-linecap:round"/>
<path d="M429 503 L452 503 L458 509 L458 517 L452 523 L429 523 L423 517 L423 509 Z" style="fill:rgb(255,255,255);stroke:rgb(0,0,0);stroke-width:1"/>
<line x1="428" y1="513" x2="432" y2="513" style="stroke:rgb(0,0,0);stroke-width:1"/>
<line x1="432" y1="513" x2="436" y2="509" style="stroke:rgb(0,0,0);stroke-width:1"/>
<line x1="444" y1="509" x2="448" y2="509" style="stroke:rgb(0,0,0);stroke-width:1"/>
<line x1="444" y1="513" x2="452" y2="513" style="stroke:rgb(0,0,0);stroke-width:1"/>
<line x1="444" y1="517" x2="448" y2="517" style="stroke:rgb(0,0,0);stroke-width:1"/>
<line x1="448" y1="509" x2="448" y2="517" style="stroke:rgb(0,0,0);stroke-width:1"/>
<ellipse cx="440" cy="509" rx="2" ry="2" style="rgb(0,0,0)"/>
<ellipse cx="440" cy="513" rx="2" ry="2" style="rgb(0,0,0)"/>
<ellipse cx="440" cy="517" rx="2" ry="2" style="rgb(0,0,0)"/>
<rect x="453" y="508" width="10" height="10" style="fill:rgb(255,255,255);stroke:rgb(0,0,0);stroke-width:1"/>
<line x1="455" y1="513" x2="461" y2="513" style="stroke:rgb(0,0,0);stroke-width:1"/>

<line x1="403" y1="513" x2="423" y2="513" style="stroke:rgb(0,0,0);stroke-width:1;stroke-linecap:round"/>
<rect x="296" y="502" width="102" height="23" style="fill:rgb(255,255,255);stroke:rgb(0,0,0);stroke-width:1"/>
<text x="347" y="513.5" style="font-family:Arimo;font-size:8pt;fill:rgb(0,0,0);font-weight:bold;text-anchor:middle;dominant-baseline:central">ContenidoFirma</text>
<rect x="393" y="508" width="10" height="10" style="fill:rgb(255,255,255);stroke:rgb(0,0,0);stroke-width:1"/>
<line x1="395" y1="513" x2="401" y2="513" style="stroke:rgb(0,0,0);stroke-width:1"/>

<line x1="286" y1="354" x2="296" y2="354" style="stroke:rgb(0,0,0);stroke-width:1;stroke-linecap:round"/>
<line x1="286" y1="513" x2="296" y2="513" style="stroke:rgb(0,0,0);stroke-width:1;stroke-linecap:round"/>
<line x1="286" y1="354" x2="286" y2="513" style="stroke:rgb(0,0,0);stroke-width:1;stroke-linecap:round"/>
<line x1="276" y1="487" x2="286" y2="487" style="stroke:rgb(0,0,0);stroke-width:1;stroke-linecap:round"/>
<path d="M242 477 L265 477 L271 483 L271 491 L265 497 L242 497 L236 491 L236 483 Z" style="fill:rgb(255,255,255);stroke:rgb(0,0,0);stroke-width:1"/>
<line x1="239" y1="487" x2="268" y2="487" style="stroke:rgb(0,0,0);stroke-width:1"/>
<ellipse cx="248" cy="487" rx="2" ry="2" style="rgb(0,0,0)"/>
<ellipse cx="253" cy="487" rx="2" ry="2" style="rgb(0,0,0)"/>
<ellipse cx="258" cy="487" rx="2" ry="2" style="rgb(0,0,0)"/>
<rect x="266" y="482" width="10" height="10" style="fill:rgb(255,255,255);stroke:rgb(0,0,0);stroke-width:1"/>
<line x1="268" y1="487" x2="274" y2="487" style="stroke:rgb(0,0,0);stroke-width:1"/>

<line x1="216" y1="486" x2="236" y2="486" style="stroke:rgb(0,0,0);stroke-width:1;stroke-linecap:round"/>
<rect x="164" y="478" width="50" height="23" style="fill:rgb(255,255,255);stroke:rgb(0,0,0);stroke-width:1"/>
<rect x="161" y="475" width="50" height="23" style="fill:rgb(255,255,255);stroke:rgb(0,0,0);stroke-width:1"/>
<text x="186" y="486.5" style="font-family:Arimo;font-size:8pt;fill:rgb(0,0,0);font-weight:bold;text-anchor:middle;dominant-baseline:central">firma</text>
<text x="206" y="508" style="font-family:Arimo;font-size:7.2pt;fill:rgb(0,0,0);text-anchor:end;dominant-baseline:central">1..∞</text>
<rect x="206" y="481" width="10" height="10" style="fill:rgb(255,255,255);stroke:rgb(0,0,0);stroke-width:1"/>
<line x1="208" y1="486" x2="214" y2="486" style="stroke:rgb(0,0,0);stroke-width:1"/>

<line x1="141" y1="487" x2="161" y2="487" style="stroke:rgb(0,0,0);stroke-width:1;stroke-linecap:round"/>
<path d="M107 477 L130 477 L136 483 L136 491 L130 497 L107 497 L101 491 L101 483 Z" style="fill:rgb(255,255,255);stroke:rgb(0,0,0);stroke-width:1"/>
<line x1="104" y1="487" x2="133" y2="487" style="stroke:rgb(0,0,0);stroke-width:1"/>
<ellipse cx="113" cy="487" rx="2" ry="2" style="rgb(0,0,0)"/>
<ellipse cx="118" cy="487" rx="2" ry="2" style="rgb(0,0,0)"/>
<ellipse cx="123" cy="487" rx="2" ry="2" style="rgb(0,0,0)"/>
<rect x="131" y="482" width="10" height="10" style="fill:rgb(255,255,255);stroke:rgb(0,0,0);stroke-width:1"/>
<line x1="133" y1="487" x2="139" y2="487" style="stroke:rgb(0,0,0);stroke-width:1"/>

<line x1="81" y1="486" x2="101" y2="486" style="stroke:rgb(0,0,0);stroke-width:1;stroke-linecap:round"/>
<path d="M26 475 L76 475 L76 498 L26 498 L20 492 L20 481 Z" style="fill:rgb(255,255,255);stroke:rgb(0,0,0);stroke-width:1"/>
<text x="48" y="486.5" style="font-family:Arimo;font-size:8pt;fill:rgb(0,0,0);font-weight:bold;text-anchor:middle;dominant-baseline:central">firmas</text>
<rect x="71" y="481" width="10" height="10" style="fill:rgb(255,255,255);stroke:rgb(0,0,0);stroke-width:1"/>
<line x1="73" y1="486" x2="79" y2="486" style="stroke:rgb(0,0,0);stroke-width:1"/>
</svg>
