<?xml version="1.0" standalone="no"?>
<!DOCTYPE svg PUBLIC "-//W3C//DTD SVG 1.1//EN" "http://www.w3.org/Graphics/SVG/1.1/DTD/svg11.dtd">
<svg width="563" height="434" version="1.1" xmlns="http://www.w3.org/2000/svg">
<rect x="181" y="25" width="74" height="23" style="fill:rgb(255,255,255);stroke:rgb(0,0,0);stroke-width:1"/>
<text x="218" y="36.5" style="font-family:Arimo;font-size:8pt;fill:rgb(0,0,0);font-weight:bold;text-anchor:middle;dominant-baseline:central">VersionNTI</text>
<line x1="183" y1="27" x2="191" y2="27" style="stroke:rgb(0,0,0);stroke-width:1"/>
<line x1="183" y1="29" x2="189" y2="29" style="stroke:rgb(0,0,0);stroke-width:1"/>
<line x1="183" y1="31" x2="189" y2="31" style="stroke:rgb(0,0,0);stroke-width:1"/>
<line x1="183" y1="33" x2="189" y2="33" style="stroke:rgb(0,0,0);stroke-width:1"/>

<rect x="181" y="78" width="81" height="23" style="fill:rgb(255,255,255);stroke:rgb(0,0,0);stroke-width:1"/>
<text x="221.5" y="89.5" style="font-family:Arimo;font-size:8pt;fill:rgb(0,0,0);font-weight:bold;text-anchor:middle;dominant-baseline:central">Identificador</text>
<line x1="183" y1="80" x2="191" y2="80" style="stroke:rgb(0,0,0);stroke-width:1"/>
<line x1="183" y1="82" x2="189" y2="82" style="stroke:rgb(0,0,0);stroke-width:1"/>
<line x1="183" y1="84" x2="189" y2="84" style="stroke:rgb(0,0,0);stroke-width:1"/>
<line x1="183" y1="86" x2="189" y2="86" style="stroke:rgb(0,0,0);stroke-width:1"/>

<rect x="184" y="134" width="56" height="23" style="fill:rgb(255,255,255);stroke:rgb(0,0,0);stroke-width:1"/>
<rect x="181" y="131" width="56" height="23" style="fill:rgb(255,255,255);stroke:rgb(0,0,0);stroke-width:1"/>
<text x="209" y="142.5" style="font-family:Arimo;font-size:8pt;fill:rgb(0,0,0);font-weight:bold;text-anchor:middle;dominant-baseline:central">Organo</text>
<text x="227" y="164" style="font-family:Arimo;font-size:7.2pt;fill:rgb(0,0,0);text-anchor:end;dominant-baseline:central">1..∞</text>
<line x1="183" y1="133" x2="191" y2="133" style="stroke:rgb(0,0,0);stroke-width:1"/>
<line x1="183" y1="135" x2="189" y2="135" style="stroke:rgb(0,0,0);stroke-width:1"/>
<line x1="183" y1="137" x2="189" y2="137" style="stroke:rgb(0,0,0);stroke-width:1"/>
<line x1="183" y1="139" x2="189" y2="139" style="stroke:rgb(0,0,0);stroke-width:1"/>

<rect x="181" y="184" width="88" height="23" style="fill:rgb(255,255,255);stroke:rgb(0,0,0);stroke-width:1"/>
<text x="225" y="195.5" style="font-family:Arimo;font-size:8pt;fill:rgb(0,0,0);font-weight:bold;text-anchor:middle;dominant-baseline:central">FechaCaptura</text>
<line x1="183" y1="186" x2="191" y2="186" style="stroke:rgb(0,0,0);stroke-width:1"/>
<line x1="183" y1="188" x2="189" y2="188" style="stroke:rgb(0,0,0);stroke-width:1"/>
<line x1="183" y1="190" x2="189" y2="190" style="stroke:rgb(0,0,0);stroke-width:1"/>
<line x1="183" y1="192" x2="189" y2="192" style="stroke:rgb(0,0,0);stroke-width:1"/>

<rect x="181" y="237" width="179" height="23" style="fill:rgb(255,255,255);stroke:rgb(0,0,0);stroke-width:1"/>
<text x="270.5" y="248.5" style="font-family:Arimo;font-size:8pt;fill:rgb(0,0,0);font-weight:bold;text-anchor:middle;dominant-baseline:central">OrigenCiudadanoAdministracion</text>
<line x1="183" y1="239" x2="191" y2="239" style="stroke:rgb(0,0,0);stroke-width:1"/>
<line x1="183" y1="241" x2="189" y2="241" style="stroke:rgb(0,0,0);stroke-width:1"/>
<line x1="183" y1="243" x2="189" y2="243" style="stroke:rgb(0,0,0);stroke-width:1"/>
<line x1="183" y1="245" x2="189" y2="245" style="stroke:rgb(0,0,0);stroke-width:1"/>

<rect x="384" y="290" width="139" height="23" style="fill:rgb(255,255,255);stroke:rgb(0,0,0);stroke-width:1"/>
<text x="453.5" y="301.5" style="font-family:Arimo;font-size:8pt;fill:rgb(0,0,0);font-weight:bold;text-anchor:middle;dominant-baseline:central">ValorEstadoElaboracion</text>
<line x1="386" y1="292" x2="394" y2="292" style="stroke:rgb(0,0,0);stroke-width:1"/>
<line x1="386" y1="294" x2="392" y2="294" style="stroke:rgb(0,0,0);stroke-width:1"/>
<line x1="386" y1="296" x2="392" y2="296" style="stroke:rgb(0,0,0);stroke-width:1"/>
<line x1="386" y1="298" x2="392" y2="298" style="stroke:rgb(0,0,0);stroke-width:1"/>

<rect x="384" y="343" width="169" height="23" style="fill:rgb(255,255,255);stroke:rgb(0,0,0);stroke-width:1;stroke-dasharray:4,1"/>
<text x="468.5" y="354.5" style="font-family:Arimo;font-size:8pt;fill:rgb(0,0,0);font-weight:bold;text-anchor:middle;dominant-baseline:central">IdentificadorDocumentoOrigen</text>
<line x1="386" y1="345" x2="394" y2="345" style="stroke:rgb(0,0,0);stroke-width:1"/>
<line x1="386" y1="347" x2="392" y2="347" style="stroke:rgb(0,0,0);stroke-width:1"/>
<line x1="386" y1="349" x2="392" y2="349" style="stroke:rgb(0,0,0);stroke-width:1"/>
<line x1="386" y1="351" x2="392" y2="351" style="stroke:rgb(0,0,0);stroke-width:1"/>

<line x1="374" y1="301" x2="384" y2="301" style="stroke:rgb(0,0,0);stroke-width:1;stroke-linecap:round"/>
<line x1="374" y1="354" x2="384" y2="354" style="stroke:rgb(0,0,0);stroke-width:1;stroke-linecap:round"/>
<line x1="374" y1="301" x2="374" y2="354" style="stroke:rgb(0,0,0);stroke-width:1;stroke-linecap:round"/>
<line x1="364" y1="328" x2="374" y2="328" style="stroke:rgb(0,0,0);stroke-width:1;stroke-linecap:round"/>
<path d="M330 318 L353 318 L359 324 L359 332 L353 338 L330 338 L324 332 L324 324 Z" style="fill:rgb(255,255,255);stroke:rgb(0,0,0);stroke-width:1"/>
<line x1="327" y1="328" x2="356" y2="328" style="stroke:rgb(0,0,0);stroke-width:1"/>
<ellipse cx="336" cy="328" rx="2" ry="2" style="rgb(0,0,0)"/>
<ellipse cx="341" cy="328" rx="2" ry="2" style="rgb(0,0,0)"/>
<ellipse cx="346" cy="328" rx="2" ry="2" style="rgb(0,0,0)"/>
<rect x="354" y="323" width="10" height="10" style="fill:rgb(255,255,255);stroke:rgb(0,0,0);stroke-width:1"/>
<line x1="356" y1="328" x2="362" y2="328" style="stroke:rgb(0,0,0);stroke-width:1"/>

<line x1="304" y1="327" x2="324" y2="327" style="stroke:rgb(0,0,0);stroke-width:1;stroke-linecap:round"/>
<rect x="181" y="316" width="118" height="23" style="fill:rgb(255,255,255);stroke:rgb(0,0,0);stroke-width:1"/>
<text x="240" y="327.5" style="font-family:Arimo;font-size:8pt;fill:rgb(0,0,0);font-weight:bold;text-anchor:middle;dominant-baseline:central">EstadoElaboracion</text>
<rect x="294" y="322" width="10" height="10" style="fill:rgb(255,255,255);stroke:rgb(0,0,0);stroke-width:1"/>
<line x1="296" y1="327" x2="302" y2="327" style="stroke:rgb(0,0,0);stroke-width:1"/>

<rect x="181" y="396" width="99" height="23" style="fill:rgb(255,255,255);stroke:rgb(0,0,0);stroke-width:1"/>
<text x="230.5" y="407.5" style="font-family:Arimo;font-size:8pt;fill:rgb(0,0,0);font-weight:bold;text-anchor:middle;dominant-baseline:central">TipoDocumental</text>
<line x1="183" y1="398" x2="191" y2="398" style="stroke:rgb(0,0,0);stroke-width:1"/>
<line x1="183" y1="400" x2="189" y2="400" style="stroke:rgb(0,0,0);stroke-width:1"/>
<line x1="183" y1="402" x2="189" y2="402" style="stroke:rgb(0,0,0);stroke-width:1"/>
<line x1="183" y1="404" x2="189" y2="404" style="stroke:rgb(0,0,0);stroke-width:1"/>

<line x1="171" y1="36" x2="181" y2="36" style="stroke:rgb(0,0,0);stroke-width:1;stroke-linecap:round"/>
<line x1="171" y1="89" x2="181" y2="89" style="stroke:rgb(0,0,0);stroke-width:1;stroke-linecap:round"/>
<line x1="171" y1="142" x2="181" y2="142" style="stroke:rgb(0,0,0);stroke-width:1;stroke-linecap:round"/>
<line x1="171" y1="195" x2="181" y2="195" style="stroke:rgb(0,0,0);stroke-width:1;stroke-linecap:round"/>
<line x1="171" y1="248" x2="181" y2="248" style="stroke:rgb(0,0,0);stroke-width:1;stroke-linecap:round"/>
<line x1="171" y1="327" x2="181" y2="327" style="stroke:rgb(0,0,0);stroke-width:1;stroke-linecap:round"/>
<line x1="171" y1="407" x2="181" y2="407" style="stroke:rgb(0,0,0);stroke-width:1;stroke-linecap:round"/>
<line x1="171" y1="36" x2="171" y2="407" style="stroke:rgb(0,0,0);stroke-width:1;stroke-linecap:round"/>
<line x1="161" y1="222" x2="171" y2="222" style="stroke:rgb(0,0,0);stroke-width:1;stroke-linecap:round"/>
<path d="M127 212 L150 212 L156 218 L156 226 L150 232 L127 232 L121 226 L121 218 Z" style="fill:rgb(255,255,255);stroke:rgb(0,0,0);stroke-width:1"/>
<line x1="124" y1="222" x2="153" y2="222" style="stroke:rgb(0,0,0);stroke-width:1"/>
<ellipse cx="133" cy="222" rx="2" ry="2" style="rgb(0,0,0)"/>
<ellipse cx="138" cy="222" rx="2" ry="2" style="rgb(0,0,0)"/>
<ellipse cx="143" cy="222" rx="2" ry="2" style="rgb(0,0,0)"/>
<rect x="151" y="217" width="10" height="10" style="fill:rgb(255,255,255);stroke:rgb(0,0,0);stroke-width:1"/>
<line x1="153" y1="222" x2="159" y2="222" style="stroke:rgb(0,0,0);stroke-width:1"/>

<line x1="101" y1="221" x2="121" y2="221" style="stroke:rgb(0,0,0);stroke-width:1;stroke-linecap:round"/>
<rect x="20" y="210" width="76" height="23" style="fill:rgb(255,255,255);stroke:rgb(0,0,0);stroke-width:1"/>
<text x="58" y="221.5" style="font-family:Arimo;font-size:8pt;fill:rgb(0,0,0);font-weight:bold;text-anchor:middle;dominant-baseline:central">metadatos</text>
<rect x="91" y="216" width="10" height="10" style="fill:rgb(255,255,255);stroke:rgb(0,0,0);stroke-width:1"/>
<line x1="93" y1="221" x2="99" y2="221" style="stroke:rgb(0,0,0);stroke-width:1"/>
</svg>
