<?xml version="1.0" standalone="no"?>
<!DOCTYPE svg PUBLIC "-//W3C//DTD SVG 1.1//EN" "http://www.w3.org/Graphics/SVG/1.1/DTD/svg11.dtd">
<svg width="100%" height="100%" version="1.1" xmlns="http://www.w3.org/2000/svg">
<rect x="190" y="25" width="186" height="23" style="fill:rgb(255,255,255);stroke:rgb(0,0,0);stroke-width:1"/>
<text x="283" y="36.5" style="font-family:Arimo;font-size:8pt;fill:rgb(0,0,0);font-weight:bold;text-anchor:middle;dominant-baseline:central">Codigo_Entidad_Registral_Origen</text>
<line x1="192" y1="27" x2="200" y2="27" style="stroke:rgb(0,0,0);stroke-width:1"/>
<line x1="192" y1="29" x2="198" y2="29" style="stroke:rgb(0,0,0);stroke-width:1"/>
<line x1="192" y1="31" x2="198" y2="31" style="stroke:rgb(0,0,0);stroke-width:1"/>
<line x1="192" y1="33" x2="198" y2="33" style="stroke:rgb(0,0,0);stroke-width:1"/>

<rect x="190" y="78" width="190" height="23" style="fill:rgb(255,255,255);stroke:rgb(0,0,0);stroke-width:1"/>
<text x="285" y="89.5" style="font-family:Arimo;font-size:8pt;fill:rgb(0,0,0);font-weight:bold;text-anchor:middle;dominant-baseline:central">Codigo_Entidad_Registral_Destino</text>
<line x1="192" y1="80" x2="200" y2="80" style="stroke:rgb(0,0,0);stroke-width:1"/>
<line x1="192" y1="82" x2="198" y2="82" style="stroke:rgb(0,0,0);stroke-width:1"/>
<line x1="192" y1="84" x2="198" y2="84" style="stroke:rgb(0,0,0);stroke-width:1"/>
<line x1="192" y1="86" x2="198" y2="86" style="stroke:rgb(0,0,0);stroke-width:1"/>

<rect x="190" y="131" width="145" height="23" style="fill:rgb(255,255,255);stroke:rgb(0,0,0);stroke-width:1"/>
<text x="262.5" y="142.5" style="font-family:Arimo;font-size:8pt;fill:rgb(0,0,0);font-weight:bold;text-anchor:middle;dominant-baseline:central">Identificador_Intercambio</text>
<line x1="192" y1="133" x2="200" y2="133" style="stroke:rgb(0,0,0);stroke-width:1"/>
<line x1="192" y1="135" x2="198" y2="135" style="stroke:rgb(0,0,0);stroke-width:1"/>
<line x1="192" y1="137" x2="198" y2="137" style="stroke:rgb(0,0,0);stroke-width:1"/>
<line x1="192" y1="139" x2="198" y2="139" style="stroke:rgb(0,0,0);stroke-width:1"/>

<rect x="190" y="184" width="88" height="23" style="fill:rgb(255,255,255);stroke:rgb(0,0,0);stroke-width:1"/>
<text x="234" y="195.5" style="font-family:Arimo;font-size:8pt;fill:rgb(0,0,0);font-weight:bold;text-anchor:middle;dominant-baseline:central">Tipo_Mensaje</text>
<line x1="192" y1="186" x2="200" y2="186" style="stroke:rgb(0,0,0);stroke-width:1"/>
<line x1="192" y1="188" x2="198" y2="188" style="stroke:rgb(0,0,0);stroke-width:1"/>
<line x1="192" y1="190" x2="198" y2="190" style="stroke:rgb(0,0,0);stroke-width:1"/>
<line x1="192" y1="192" x2="198" y2="192" style="stroke:rgb(0,0,0);stroke-width:1"/>

<rect x="190" y="237" width="126" height="23" style="fill:rgb(255,255,255);stroke:rgb(0,0,0);stroke-width:1;stroke-dasharray:4,1"/>
<text x="253" y="248.5" style="font-family:Arimo;font-size:8pt;fill:rgb(0,0,0);font-weight:bold;text-anchor:middle;dominant-baseline:central">Descripcion_Mensaje</text>
<line x1="192" y1="239" x2="200" y2="239" style="stroke:rgb(0,0,0);stroke-width:1"/>
<line x1="192" y1="241" x2="198" y2="241" style="stroke:rgb(0,0,0);stroke-width:1"/>
<line x1="192" y1="243" x2="198" y2="243" style="stroke:rgb(0,0,0);stroke-width:1"/>
<line x1="192" y1="245" x2="198" y2="245" style="stroke:rgb(0,0,0);stroke-width:1"/>

<rect x="190" y="290" width="192" height="23" style="fill:rgb(255,255,255);stroke:rgb(0,0,0);stroke-width:1;stroke-dasharray:4,1"/>
<text x="286" y="301.5" style="font-family:Arimo;font-size:8pt;fill:rgb(0,0,0);font-weight:bold;text-anchor:middle;dominant-baseline:central">Numero_Registro_Entrada_Destino</text>
<line x1="192" y1="292" x2="200" y2="292" style="stroke:rgb(0,0,0);stroke-width:1"/>
<line x1="192" y1="294" x2="198" y2="294" style="stroke:rgb(0,0,0);stroke-width:1"/>
<line x1="192" y1="296" x2="198" y2="296" style="stroke:rgb(0,0,0);stroke-width:1"/>
<line x1="192" y1="298" x2="198" y2="298" style="stroke:rgb(0,0,0);stroke-width:1"/>

<rect x="190" y="343" width="166" height="23" style="fill:rgb(255,255,255);stroke:rgb(0,0,0);stroke-width:1;stroke-dasharray:4,1"/>
<text x="273" y="354.5" style="font-family:Arimo;font-size:8pt;fill:rgb(0,0,0);font-weight:bold;text-anchor:middle;dominant-baseline:central">Fecha_Hora_Entrada_Destino</text>
<line x1="192" y1="345" x2="200" y2="345" style="stroke:rgb(0,0,0);stroke-width:1"/>
<line x1="192" y1="347" x2="198" y2="347" style="stroke:rgb(0,0,0);stroke-width:1"/>
<line x1="192" y1="349" x2="198" y2="349" style="stroke:rgb(0,0,0);stroke-width:1"/>
<line x1="192" y1="351" x2="198" y2="351" style="stroke:rgb(0,0,0);stroke-width:1"/>

<rect x="190" y="396" width="107" height="23" style="fill:rgb(255,255,255);stroke:rgb(0,0,0);stroke-width:1"/>
<text x="243.5" y="407.5" style="font-family:Arimo;font-size:8pt;fill:rgb(0,0,0);font-weight:bold;text-anchor:middle;dominant-baseline:central">Indicador_Prueba</text>
<line x1="192" y1="398" x2="200" y2="398" style="stroke:rgb(0,0,0);stroke-width:1"/>
<line x1="192" y1="400" x2="198" y2="400" style="stroke:rgb(0,0,0);stroke-width:1"/>
<line x1="192" y1="402" x2="198" y2="402" style="stroke:rgb(0,0,0);stroke-width:1"/>
<line x1="192" y1="404" x2="198" y2="404" style="stroke:rgb(0,0,0);stroke-width:1"/>

<rect x="193" y="452" width="124" height="23" style="fill:rgb(255,255,255);stroke:rgb(0,0,0);stroke-width:1;stroke-dasharray:4,1"/>
<rect x="190" y="449" width="124" height="23" style="fill:rgb(255,255,255);stroke:rgb(0,0,0);stroke-width:1;stroke-dasharray:4,1"/>
<text x="252" y="460.5" style="font-family:Arimo;font-size:8pt;fill:rgb(0,0,0);font-weight:bold;text-anchor:middle;dominant-baseline:central">Identificador_Fichero</text>
<text x="304" y="482" style="font-family:Arimo;font-size:7.2pt;fill:rgb(0,0,0);text-anchor:end;dominant-baseline:central">0..10</text>
<line x1="192" y1="451" x2="200" y2="451" style="stroke:rgb(0,0,0);stroke-width:1"/>
<line x1="192" y1="453" x2="198" y2="453" style="stroke:rgb(0,0,0);stroke-width:1"/>
<line x1="192" y1="455" x2="198" y2="455" style="stroke:rgb(0,0,0);stroke-width:1"/>
<line x1="192" y1="457" x2="198" y2="457" style="stroke:rgb(0,0,0);stroke-width:1"/>

<rect x="190" y="502" width="85" height="23" style="fill:rgb(255,255,255);stroke:rgb(0,0,0);stroke-width:1;stroke-dasharray:4,1"/>
<text x="232.5" y="513.5" style="font-family:Arimo;font-size:8pt;fill:rgb(0,0,0);font-weight:bold;text-anchor:middle;dominant-baseline:central">Codigo_Error</text>
<line x1="192" y1="504" x2="200" y2="504" style="stroke:rgb(0,0,0);stroke-width:1"/>
<line x1="192" y1="506" x2="198" y2="506" style="stroke:rgb(0,0,0);stroke-width:1"/>
<line x1="192" y1="508" x2="198" y2="508" style="stroke:rgb(0,0,0);stroke-width:1"/>
<line x1="192" y1="510" x2="198" y2="510" style="stroke:rgb(0,0,0);stroke-width:1"/>

<line x1="180" y1="36" x2="190" y2="36" style="stroke:rgb(0,0,0);stroke-width:1;stroke-linecap:round"/>
<line x1="180" y1="89" x2="190" y2="89" style="stroke:rgb(0,0,0);stroke-width:1;stroke-linecap:round"/>
<line x1="180" y1="142" x2="190" y2="142" style="stroke:rgb(0,0,0);stroke-width:1;stroke-linecap:round"/>
<line x1="180" y1="195" x2="190" y2="195" style="stroke:rgb(0,0,0);stroke-width:1;stroke-linecap:round"/>
<line x1="180" y1="248" x2="190" y2="248" style="stroke:rgb(0,0,0);stroke-width:1;stroke-linecap:round"/>
<line x1="180" y1="301" x2="190" y2="301" style="stroke:rgb(0,0,0);stroke-width:1;stroke-linecap:round"/>
<line x1="180" y1="354" x2="190" y2="354" style="stroke:rgb(0,0,0);stroke-width:1;stroke-linecap:round"/>
<line x1="180" y1="407" x2="190" y2="407" style="stroke:rgb(0,0,0);stroke-width:1;stroke-linecap:round"/>
<line x1="180" y1="460" x2="190" y2="460" style="stroke:rgb(0,0,0);stroke-width:1;stroke-linecap:round"/>
<line x1="180" y1="513" x2="190" y2="513" style="stroke:rgb(0,0,0);stroke-width:1;stroke-linecap:round"/>
<line x1="180" y1="36" x2="180" y2="513" style="stroke:rgb(0,0,0);stroke-width:1;stroke-linecap:round"/>
<line x1="170" y1="275" x2="180" y2="275" style="stroke:rgb(0,0,0);stroke-width:1;stroke-linecap:round"/>
<path d="M136 265 L159 265 L165 271 L165 279 L159 285 L136 285 L130 279 L130 271 Z" style="fill:rgb(255,255,255);stroke:rgb(0,0,0);stroke-width:1"/>
<line x1="133" y1="275" x2="162" y2="275" style="stroke:rgb(0,0,0);stroke-width:1"/>
<ellipse cx="142" cy="275" rx="2" ry="2" style="rgb(0,0,0)"/>
<ellipse cx="147" cy="275" rx="2" ry="2" style="rgb(0,0,0)"/>
<ellipse cx="152" cy="275" rx="2" ry="2" style="rgb(0,0,0)"/>
<rect x="160" y="270" width="10" height="10" style="fill:rgb(255,255,255);stroke:rgb(0,0,0);stroke-width:1"/>
<line x1="162" y1="275" x2="168" y2="275" style="stroke:rgb(0,0,0);stroke-width:1"/>

<line x1="110" y1="274" x2="130" y2="274" style="stroke:rgb(0,0,0);stroke-width:1;stroke-linecap:round"/>
<rect x="20" y="263" width="85" height="23" style="fill:rgb(255,255,255);stroke:rgb(0,0,0);stroke-width:1"/>
<text x="62.5" y="274.5" style="font-family:Arimo;font-size:8pt;fill:rgb(0,0,0);font-weight:bold;text-anchor:middle;dominant-baseline:central">De_Mensaje</text>
<rect x="100" y="269" width="10" height="10" style="fill:rgb(255,255,255);stroke:rgb(0,0,0);stroke-width:1"/>
<line x1="102" y1="274" x2="108" y2="274" style="stroke:rgb(0,0,0);stroke-width:1"/>
</svg>
